<svg width="120" height="125" viewBox="0 0 120 125" fill="none" xmlns="http://www.w3.org/2000/svg">
<g filter="url(#filter0_d_225_6)">
<path d="M52.4253 0.306C51.3894 0.434929 50.0945 0.886169 49.5765 1.27295C48.4111 2.2399 41.289 3.72255 40.0588 3.20684C39.6056 3.01345 39.1524 3.14238 39.1524 3.4647C39.1524 4.17379 34.8144 6.49446 33.39 6.55893C32.4836 6.55893 31.0592 7.26802 25.2968 10.5556C24.5846 11.0069 23.9371 11.8449 23.9371 12.4895C23.9371 13.1342 23.4839 13.6499 22.9012 13.6499C21.2178 13.6499 18.4984 15.7772 17.3977 17.9044C16.3618 19.9028 16.4266 19.9673 18.11 21.3855C19.0811 22.2879 19.5344 23.0615 19.1459 23.3194C18.7574 23.5127 18.4337 24.4797 18.4337 25.3822C18.4337 26.7359 18.3042 26.9293 17.4625 26.2202C16.9445 25.769 16.4913 24.9954 16.4913 24.5442C16.4913 23.4483 15.7144 23.3838 14.6784 24.4152C14.1604 24.9309 13.7072 24.9309 13.0598 24.4152C12.3476 23.8351 11.9591 24.0285 11.3116 25.3177C10.5347 26.7359 10.5347 27.0582 11.3116 27.5095C11.8296 27.8962 12.8008 28.1541 13.4482 28.1541C14.031 28.1541 14.5489 28.4119 14.5489 28.7343C14.5489 29.5723 12.4771 30.2169 12.0238 29.5078C11.7648 29.1855 11.0526 28.9921 10.3404 29.0566C9.36924 29.25 9.04551 29.7657 9.11026 31.3128C9.23975 33.3111 8.4628 34.0847 7.88008 32.4731C7.29737 30.6682 3.02414 41.6914 2.24718 46.9773C2.05295 48.7178 1.92345 50.0716 2.11769 50.0716C2.24718 50.0716 3.15363 49.6203 4.18956 49.0402C5.16075 48.3955 6.39093 48.0732 6.84415 48.2666C7.36212 48.46 8.00958 48.7178 8.39805 48.8468C8.72178 48.9757 9.04551 48.6534 9.11026 48.1377C9.23975 45.9459 10.2109 42.9806 10.7937 42.9806C11.1821 42.9806 11.3116 43.5608 11.1174 44.2699C10.8584 45.2368 11.1174 45.5592 12.0238 45.5592C13.0598 45.5592 13.1893 45.8815 12.8655 47.2997C12.6065 48.3311 12.1533 49.1691 11.8296 49.298C11.5706 49.4269 11.3116 50.0716 11.3116 50.6517C11.3116 51.2964 11.1174 52.0055 10.8584 52.2633C10.2109 52.8435 10.0814 68.1213 10.6642 68.1213C11.1821 68.1213 12.2828 71.28 12.0238 72.2469C11.9591 72.5692 12.3476 73.7296 12.8655 74.8254C13.3835 75.9213 14.031 77.6618 14.2899 78.7577C14.5489 79.7891 15.5849 81.9808 16.6208 83.528C17.592 85.1395 18.3042 86.88 18.11 87.4602C17.9157 88.0404 18.6279 88.9429 20.1171 89.9098C21.3473 90.6834 22.7069 92.1016 23.0954 92.9396C23.4839 93.8421 24.0018 94.5512 24.2608 94.5512C24.5198 94.5512 26.4622 95.8404 28.5341 97.452C30.5412 99.0636 32.6131 100.353 33.131 100.353C33.5842 100.353 33.9727 100.74 33.9727 101.126C33.9727 101.578 35.0734 102.416 36.4331 103.06C38.8287 104.092 40.1883 104.543 46.9867 106.477C50.0945 107.379 50.6124 107.702 50.3535 108.798C50.1592 109.442 49.7707 110.022 49.5118 110.022C47.8931 110.022 42.3897 108.411 42.3897 107.959C42.3897 107.702 41.807 107.444 41.0948 107.444C39.8646 107.444 36.3036 105.768 31.7066 102.996C30.6707 102.416 29.3758 101.191 28.9873 100.288C28.5341 99.4504 28.1456 99.0636 28.1456 99.3859C28.1456 99.7727 27.5629 100.417 26.9154 100.804C25.75 101.513 25.6852 101.449 26.009 99.3859C26.4622 96.7429 25.491 95.3247 23.4191 95.4536C22.4479 95.5181 21.93 95.9693 21.8005 96.9363C21.671 97.9032 21.2825 98.2256 20.5703 97.9677C19.9228 97.7099 19.6639 97.8388 19.9876 98.29C20.1818 98.6768 20.0523 99.1925 19.6639 99.4504C19.1459 99.7727 19.0164 99.4504 19.2754 98.3545C19.7933 96.2917 19.1459 93.9065 18.0452 93.9065C17.3977 93.9065 17.333 93.5197 17.7862 92.2949C18.4337 90.6834 18.0452 88.7495 17.1388 88.7495C16.815 88.7495 16.4913 89.1363 16.2971 89.523C16.1676 89.9743 15.8438 90.1677 15.5849 89.9098C15.3259 89.7164 15.6496 88.685 16.2323 87.7181L17.3977 85.9776L15.6496 86.4288C14.5489 86.6866 13.9015 86.5577 13.9015 86.1709C13.9015 85.4618 11.7648 80.3048 10.6642 78.3064C10.0167 77.1461 8.85128 72.8915 8.39805 70.0552C8.20382 69.1527 7.81534 66.8965 7.49161 65.027C7.10313 63.0931 7.03839 60.708 7.23263 59.6121C7.6211 57.7427 7.6211 57.7427 5.09601 58.065C3.73634 58.2584 2.95939 58.2584 3.41261 58.065C3.80109 57.8716 4.18956 57.2914 4.18956 56.7757C4.18956 56.26 4.77228 55.8733 5.48448 55.8733C6.7794 55.8733 8.07432 54.1328 8.07432 52.2633C8.07432 50.8451 6.19669 49.5559 4.64279 49.9426C3.73634 50.2005 3.60685 50.3939 4.31906 50.7807C4.96652 51.1674 4.96652 51.4898 4.31906 52.1344C3.28312 53.1658 3.34787 53.9394 4.51329 53.9394C5.03126 53.9394 5.48448 54.1972 5.48448 54.584C5.48448 54.9063 5.09601 55.2286 4.70753 55.2286C3.21837 55.1642 1.59972 53.4881 1.53498 51.941V50.3939L0.887519 51.941C0.110567 53.8749 0.563789 55.2286 1.92345 55.2286C2.44142 55.2286 2.89464 55.5509 2.89464 55.9377C2.89464 56.26 2.63566 56.389 2.24718 56.1956C1.92345 56.0022 1.21125 56.9047 0.628535 58.1939C-0.536893 61.0303 -0.0189249 65.2849 1.66447 66.7675C3.15363 67.9923 3.15363 68.3791 1.85871 69.6684C0.952265 70.6353 0.952265 71.0221 2.18244 74.5676C2.95939 76.6949 3.5421 78.7577 3.5421 79.1445C3.5421 80.6271 10.2109 93.3908 11.3764 94.0999C12.0886 94.5512 12.6065 95.1313 12.6065 95.3892C12.6065 95.7115 13.6425 97.1941 14.9374 98.8057C16.8798 101.126 17.592 101.578 18.8222 101.255C19.7933 100.997 20.3761 101.126 20.3761 101.578C20.3761 101.964 20.1171 102.287 19.7286 102.287C18.7574 102.287 18.9516 103.576 19.9228 103.576C20.3113 103.64 22.1889 104.93 23.9371 106.541C27.9513 110.216 36.2388 114.148 44.2673 116.211C47.6341 117.049 50.4829 117.887 50.6772 118.016C50.8067 118.145 51.7779 118.016 52.8138 117.758C53.9792 117.371 55.4684 117.436 56.4396 117.822C57.9287 118.338 57.9935 118.338 57.2813 117.436C56.4396 116.404 56.8928 114.212 57.864 114.793C58.1877 115.05 58.6409 116.082 58.8999 117.178C59.3531 119.112 59.3531 119.112 63.1732 118.918C65.245 118.789 66.9932 118.531 66.9932 118.274C66.9932 118.08 68.2234 117.693 69.7773 117.436C73.7915 116.726 74.1152 116.662 78.3237 115.179C83.8271 113.245 87.7119 111.376 87.7119 110.731C87.7119 110.409 88.5536 109.958 89.5895 109.7C90.6255 109.507 91.9851 108.733 92.6326 108.024C93.2153 107.379 94.1217 106.799 94.6397 106.799C95.1577 106.799 96.1289 106.219 96.8411 105.574C98.0065 104.543 98.0713 104.156 97.2943 102.996C96.8411 102.222 96.2584 101.642 95.9994 101.642C95.6757 101.642 95.4814 101.384 95.4814 100.997C95.4814 100.675 95.8699 100.417 96.2584 100.546C96.7116 100.611 97.1648 100.031 97.2943 99.257C97.4238 98.2256 97.9418 97.7743 99.0424 97.7743C101.827 97.7743 108.431 90.2321 108.431 87.0734C108.431 86.042 111.215 82.9478 112.186 82.9478C112.51 82.9478 112.769 82.2387 112.704 81.3362C112.639 79.5312 111.992 79.2734 111.215 80.5626C110.956 81.0784 109.79 81.7874 108.625 82.1742C106.747 82.8189 106.423 82.6899 105.323 81.2073C103.575 78.8866 101.956 79.5957 101.956 82.6899C101.956 84.4304 101.697 84.9461 101.05 84.6883C100.596 84.4949 99.8194 84.6883 99.3662 85.0751C98.7187 85.7197 98.5892 85.5263 98.913 84.4304C99.1072 83.5924 98.9777 82.9478 98.5892 82.9478C97.7475 82.9478 98.5245 79.7246 99.6899 78.4354C100.143 77.9197 100.855 76.3081 101.244 74.8254C101.632 73.4072 102.539 71.5378 103.251 70.6998C103.963 69.8618 104.546 68.508 104.546 67.67C104.546 66.832 104.934 66.1874 105.452 66.1874C105.906 66.1874 106.682 65.7361 107.136 65.2204C107.654 64.6402 108.236 64.4469 108.56 64.7692C109.467 65.6717 108.431 67.4766 107.071 67.4766C106.423 67.4766 105.841 67.8634 105.841 68.3791C105.841 69.2816 107.718 70.0552 110.243 70.0552C111.992 70.0552 112.186 71.3444 110.373 71.4089C107.848 71.6023 107.459 71.7312 107.654 72.5692C107.718 73.0205 107.265 73.9229 106.488 74.5676C105.776 75.1477 105.193 76.0502 105.193 76.5015C105.193 77.7263 107.718 80.6271 108.949 80.8205C110.438 81.0139 113.61 77.2106 113.61 75.1477C113.61 74.2453 114.128 73.0205 114.776 72.4403C115.553 71.7312 115.876 70.6353 115.812 69.2816C115.747 68.1213 115.941 66.7675 116.33 66.3163C117.56 64.8981 116.977 50.2005 115.553 46.2038C115.229 45.3013 114.84 43.7542 114.711 42.7872C114.581 41.7558 114.258 40.7244 113.869 40.531C113.546 40.2732 113.222 38.9839 113.157 37.6302C113.092 36.2765 112.574 34.4715 112.056 33.6335C111.474 32.731 111.02 31.6996 111.02 31.2483C111.02 30.7971 110.438 30.0235 109.726 29.5723C109.013 29.121 108.431 29.0566 108.431 29.3144C108.431 29.6367 107.589 30.7971 106.488 31.893C104.611 33.8913 104.157 33.8269 104.934 31.764C105.129 31.1839 105.841 30.7326 106.423 30.7326C107.136 30.7326 106.941 30.4103 105.841 29.8946C104.74 29.3144 104.093 29.25 103.769 29.7012C103.51 30.088 102.992 30.4748 102.603 30.4748C102.28 30.5392 101.762 30.6037 101.568 30.6682C101.309 30.6682 101.632 31.4417 102.215 32.3442C102.798 33.1822 103.251 34.3426 103.251 34.9227C103.251 35.5674 103.575 35.7607 104.028 35.5029C104.546 35.1806 104.611 35.374 104.352 36.0831C104.157 36.7277 104.157 37.1789 104.416 37.1789C105.193 37.1789 106.618 41.0467 106.294 42.2715C106.165 42.9162 106.488 43.7542 107.2 44.141C109.013 45.3013 110.438 51.2319 110.049 56.3245C109.531 62.6419 109.208 63.8022 108.042 63.351C107.524 63.1576 107.2 63.2221 107.395 63.4799C107.589 63.7378 107.2 64.3179 106.618 64.7047C105.582 65.2849 105.517 64.8981 105.582 59.8055C105.647 53.8749 106.035 52.1344 107.913 50.8451C108.56 50.3939 109.078 49.6848 109.078 49.2336C109.078 48.7178 108.884 48.7178 108.301 49.298C106.941 50.6517 105.97 50.136 105.517 47.622C105.323 46.3327 104.416 43.9476 103.51 42.4005C102.668 40.8533 101.956 39.1773 101.956 38.7261C101.956 38.2748 101.568 38.017 101.179 38.1459C100.726 38.3393 99.6252 37.4368 98.7187 36.212C97.8123 34.9872 96.7116 33.9558 96.1936 33.9558C95.5462 33.9558 95.8699 34.6004 96.9706 35.7607C98.7187 37.5657 99.3014 39.7575 98.0713 39.7575C97.7475 39.7575 97.4238 40.2087 97.4238 40.7244C97.4238 41.2401 97.1648 41.6914 96.7763 41.6914C96.4526 41.6914 96.1289 41.1112 96.1289 40.4021C96.1289 39.6285 95.7404 39.1128 95.2872 39.2418C94.834 39.3707 93.4743 38.4037 92.3736 37.1145C90.6255 35.1806 90.496 34.6649 91.3377 34.3426C91.8556 34.1492 92.8268 34.2136 93.4743 34.5359C94.316 34.9872 94.7692 34.8583 95.3519 33.8913C96.3231 32.4087 96.3879 29.4434 95.4814 29.4434C95.1577 29.4434 94.834 28.8632 94.834 28.1541C94.834 26.7359 93.8628 26.4136 93.2801 27.6384C93.0858 28.0896 93.0211 27.8962 93.2153 27.1871C93.4095 26.3491 92.8268 25.1243 91.4024 23.6417C89.0068 21.1276 84.0214 17.002 82.9207 16.6152C82.5322 16.4863 81.7553 15.9706 81.1725 15.4548C80.5898 14.9391 77.0288 13.7143 73.2735 12.6829C66.9932 10.9424 63.1732 10.4912 55.4036 10.6846C52.2311 10.8135 45.8212 12.4251 45.3033 13.3276C45.109 13.6499 44.4616 13.7143 43.9436 13.521C42.1955 12.8763 30.4764 19.1292 29.57 21.1921C29.4405 21.5144 29.052 21.7078 28.6635 21.7078C28.2751 21.7078 27.3039 22.4169 26.4622 23.3194C25.6205 24.2218 24.714 24.9309 24.3903 24.9309C24.1313 24.9309 23.2249 26.0913 22.3832 27.5095C21.6062 28.9277 20.6998 30.088 20.3761 30.088C19.7933 30.088 16.4913 35.245 16.4913 36.1475C16.4913 36.4054 16.8798 36.4054 17.333 36.212C17.7215 36.0186 17.4625 36.3409 16.6855 36.9211C15.8438 37.5013 15.1964 38.4037 15.1964 38.855C15.1964 39.3707 14.9374 39.7575 14.6137 39.7575C14.2899 39.7575 13.9015 40.6599 13.6425 41.7558C13.1245 44.3988 11.7001 43.8186 11.4411 40.8533C11.3116 39.0484 11.8296 37.5013 13.513 34.6004C14.8079 32.4087 15.8438 30.2169 15.8438 29.7012C15.8438 29.1855 16.556 28.4764 17.3977 28.1541C18.2394 27.8962 19.5344 26.5425 20.3761 25.3177C21.153 24.0285 21.9947 22.997 22.3184 22.997C22.6422 22.997 23.8076 22.0301 24.973 20.8698C26.1385 19.7739 27.2391 18.8069 27.4334 18.8069C27.6924 18.8069 28.5988 18.1623 29.4405 17.3243C30.3469 16.4863 32.0951 15.197 33.3253 14.4234C34.5554 13.7143 35.7209 12.8763 35.9151 12.6185C36.1093 12.4251 38.0517 11.5226 40.2531 10.6846C43.1019 9.5887 44.2026 8.87961 44.0084 8.23498C43.7494 7.52588 43.8141 7.46141 44.6558 8.1705C45.2385 8.68621 46.2745 8.81514 47.3751 8.49282C51.8426 7.26802 59.8064 6.88124 65.1803 7.52588C72.9498 8.49282 74.18 8.75068 77.2878 9.91101C84.0214 12.4251 84.7983 13.0052 96.3879 23.7706C100.726 27.8318 102.603 28.4764 102.603 25.9623C102.603 25.1243 102.798 23.8351 103.057 23.1904C103.445 22.0946 103.38 22.0946 102.086 23.2549C101.309 23.8995 100.791 24.6731 100.855 24.9309C100.92 25.1888 100.726 25.4466 100.402 25.5111C100.078 25.5756 99.7547 24.4797 99.7547 23.1904C99.6899 21.2565 100.014 20.6119 101.179 20.0962C102.603 19.4516 103.121 18.4846 101.956 18.4846C101.632 18.4846 100.92 17.6466 100.337 16.5507C99.8194 15.5193 98.0065 13.7788 96.2584 12.6185C94.575 11.5226 92.9563 10.2333 92.5678 9.84655C91.9851 9.20192 87.6471 6.43001 83.9566 4.43165C83.1149 3.98041 82.2085 3.78701 81.8848 3.9804C81.4963 4.23826 81.2373 4.10933 81.2373 3.85148C81.2373 3.52916 80.7193 3.27131 80.1366 3.20684C79.4892 3.14238 76.7698 2.49775 74.1152 1.72419C69.3888 0.306 57.605 -0.46756 52.4253 0.306ZM62.2667 1.5308C62.0077 1.72419 61.6193 1.72419 61.3603 1.5308C61.166 1.27295 61.3603 1.07956 61.8135 1.07956C62.2667 1.07956 62.461 1.27295 62.2667 1.5308ZM51.6484 2.7556C52.1016 3.20684 50.224 6.23661 49.5118 6.23661C49.2528 6.23661 48.8643 5.65645 48.6701 4.94735C48.2816 3.33577 50.5477 1.65973 51.6484 2.7556ZM73.921 4.75396C73.662 4.94735 73.4678 4.75396 73.4678 4.30271C73.4678 3.85147 73.662 3.65809 73.921 3.85148C74.1152 4.10933 74.1152 4.4961 73.921 4.75396ZM46.9219 4.56057C46.9219 4.75396 46.6629 5.07627 46.2745 5.26966C45.9507 5.46305 45.627 5.33413 45.627 5.01181C45.627 4.62503 45.9507 4.30271 46.2745 4.30271C46.6629 4.30271 46.9219 4.43164 46.9219 4.56057ZM54.4972 5.39859C54.2382 5.59198 54.044 5.39859 54.044 4.94735C54.044 4.49611 54.2382 4.30272 54.4972 4.49611C54.6914 4.75396 54.6914 5.14074 54.4972 5.39859ZM43.3609 5.59198C43.5551 5.9143 43.6199 6.23661 43.4256 6.23661C43.2314 6.23661 42.9077 5.9143 42.7134 5.59198C42.5192 5.2052 42.4544 4.94735 42.6487 4.94735C42.8429 4.94735 43.1666 5.2052 43.3609 5.59198ZM52.5548 5.39859C52.2958 5.59198 51.9074 5.59198 51.6484 5.39859C51.4541 5.14074 51.6484 4.94735 52.1016 4.94735C52.5548 4.94735 52.7491 5.14074 52.5548 5.39859ZM68.9356 5.9143C68.9356 6.23662 68.4176 6.55893 67.7701 6.62339C67.1227 6.68785 66.54 6.36554 66.54 5.9143C66.54 5.46306 67.1227 5.14074 67.7701 5.2052C68.4176 5.26966 68.9356 5.52752 68.9356 5.9143ZM85.381 6.55893C85.5753 7.07463 85.5105 7.52588 85.1868 7.52588C84.8631 7.52588 84.2804 7.07463 83.8271 6.55893C83.1797 5.78537 83.1797 5.59198 84.0214 5.59198C84.5393 5.59198 85.1221 6.04322 85.381 6.55893ZM36.1093 8.81514C34.8792 10.2333 34.2317 10.0399 34.8144 8.49282C35.0734 7.97712 35.6561 7.52588 36.2388 7.52588C37.0805 7.52588 37.0158 7.71927 36.1093 8.81514ZM62.2667 13.9722C62.5257 13.9722 63.1732 13.521 63.8206 12.9408C64.9213 11.9738 65.0508 11.9738 66.022 12.9408C66.7989 13.6499 66.9932 14.6168 66.7342 16.0995C66.54 17.1954 66.54 17.7111 66.7989 17.1954C67.3169 15.9061 69.1298 14.6168 69.7773 15.0681C70.0362 15.197 70.101 15.6482 69.842 15.9706C69.6478 16.2929 69.2593 16.4218 68.9356 16.2284C68.2881 15.8416 67.5111 17.7111 68.0291 18.5491C68.2234 18.8714 68.0291 19.1292 67.6406 19.1292C67.1874 19.1292 66.9932 19.5805 67.2522 20.0962C67.7054 21.321 66.3457 21.3855 64.7918 20.2251C63.8854 19.5805 63.7559 19.0003 64.1443 17.7755C64.4033 16.9375 64.5976 15.8416 64.4681 15.3259C64.3386 14.7458 64.6623 14.5524 65.3098 14.8102C65.8925 15.0681 66.3457 14.9391 66.3457 14.6813C66.3457 13.5854 64.1444 13.2631 63.3674 14.23C62.5257 15.3904 61.1013 14.359 61.2308 12.6829C61.2955 11.9738 61.3603 11.9738 61.6193 12.8119C61.7487 13.4565 62.0725 13.9722 62.2667 13.9722ZM92.2441 12.6829C92.2441 13.0052 91.9204 13.3276 91.5319 13.3276C91.2082 13.3276 91.0787 13.0052 91.2729 12.6829C91.4672 12.2962 91.7909 12.0383 91.9851 12.0383C92.1146 12.0383 92.2441 12.2962 92.2441 12.6829ZM54.044 13.3276C54.6267 13.6499 55.2741 13.6499 55.7921 13.1986C56.3748 12.7474 56.8928 12.7474 57.4755 13.2631C57.9935 13.6499 58.5762 13.7143 58.8999 13.4565C59.1589 13.1986 59.2237 13.7788 59.0942 14.7458C58.8999 15.7772 59.0294 16.5507 59.3531 16.5507C59.6769 16.5507 59.7416 17.1954 59.5474 17.9044C59.2237 18.8714 59.2884 19.1292 59.8064 18.8714C60.1948 18.6135 60.5186 18.8069 60.5186 19.2582C60.5186 20.0317 59.4179 20.1607 55.6626 19.8383C54.7562 19.7094 53.3965 16.6152 54.1087 16.1639C55.1447 15.5193 54.6914 14.1656 53.267 13.4565C52.4253 13.0697 52.1016 12.7474 52.4253 12.7474C52.8138 12.7474 53.526 12.9408 54.044 13.3276ZM50.5477 15.7127C50.8067 17.0664 51.2599 18.5491 51.5836 18.9359C52.0368 19.516 51.9074 19.9028 51.0657 20.1607C50.3535 20.4185 48.5406 21.1921 46.9219 21.9012C45.3033 22.6103 43.0372 23.3838 41.8717 23.7061C39.9941 24.0929 39.7999 24.0285 40.1236 22.9326C40.3826 22.0946 40.2531 21.7078 39.6056 21.7078C39.0229 21.7078 38.4402 21.321 38.3107 20.8698C38.1165 20.483 37.9222 20.7408 37.9222 21.5788C37.7927 24.0929 36.3036 22.8036 36.1741 20.1607C36.1093 17.5177 36.6921 16.9375 39.4761 16.8086C43.3609 16.6152 43.6846 16.5507 43.7494 15.3904C43.7494 14.4234 43.8141 14.4234 44.2673 15.4548C44.6558 16.5507 44.7853 16.5507 45.5623 15.6482C46.0155 15.0681 46.9867 14.6168 47.6341 14.6168C48.3463 14.6168 48.8643 14.2945 48.8643 13.9722C48.8643 13.5854 49.1233 13.3276 49.5118 13.3276C49.8355 13.3276 50.2887 14.4234 50.5477 15.7127ZM52.1016 14.23C52.1016 14.4234 51.8426 14.7458 51.4541 14.9391C51.1304 15.1325 50.8067 15.0036 50.8067 14.6813C50.8067 14.2945 51.1304 13.9722 51.4541 13.9722C51.8426 13.9722 52.1016 14.1011 52.1016 14.23ZM75.0217 15.5838C75.2159 16.0995 76.1224 16.5507 77.0288 16.5507C78.4532 16.5507 78.6475 16.8086 78.6475 18.8069C78.6475 20.0317 78.3885 21.0631 78 21.0631C77.6763 21.0631 77.3525 20.7408 77.3525 20.354C77.3525 20.0317 77.0288 19.9028 76.5756 20.1607C75.9929 20.5474 75.9929 20.7408 76.5756 20.9342C77.1583 21.1276 77.1583 21.5144 76.6403 22.4169C76.1224 23.3838 75.7339 23.5772 75.1512 23.0615C74.698 22.6747 74.18 22.4813 73.9857 22.6747C73.7915 22.8681 73.3383 22.6103 72.9498 22.159C72.4318 21.5144 72.4318 20.6119 72.9498 18.7425C73.3383 17.3887 73.662 15.8416 73.5325 15.3904C73.3383 14.2945 74.5685 14.4234 75.0217 15.5838ZM23.2249 16.6796C23.0306 19.1937 22.1889 21.0631 21.2825 21.0631C20.0523 21.0631 20.1171 20.0317 21.3473 19.516C21.93 19.3226 22.3184 18.3557 22.3184 17.1954C22.3184 16.1639 22.5774 15.2615 22.8364 15.2615C23.0954 15.2615 23.2896 15.9061 23.2249 16.6796ZM96.5821 19.5805C96.3231 19.7739 96.1289 19.5805 96.1289 19.1292C96.1289 18.678 96.3231 18.4846 96.5821 18.678C96.7763 18.9359 96.7763 19.3226 96.5821 19.5805ZM98.5245 19.5805C98.2655 19.7739 98.0713 19.5805 98.0713 19.1292C98.0713 18.678 98.2655 18.4846 98.5245 18.678C98.7187 18.9359 98.7187 19.3226 98.5245 19.5805ZM33.9727 21.7078C33.9727 22.5458 34.6202 23.2549 35.5914 23.6417C37.6632 24.4152 37.6632 25.8334 35.5914 26.7359C33.131 27.8962 31.3829 27.7029 30.0232 26.0913C28.8578 24.802 28.8578 24.6731 29.8937 23.3838C30.5412 22.6747 31.3829 21.7078 31.7066 21.2565C32.6778 20.0317 33.9727 20.2896 33.9727 21.7078ZM83.6976 21.4499C84.8631 21.9656 85.7695 22.6747 85.7695 22.997C85.7695 23.3194 86.2227 23.4483 86.8055 23.1904C87.5824 22.9326 87.7766 23.1904 87.5824 24.3508C87.4529 25.5756 87.0644 25.8334 85.7695 25.7045C83.6976 25.5111 82.7912 26.1557 82.2732 28.1541C81.9495 29.25 82.0143 29.5078 82.4027 28.8632C83.3092 27.5739 84.5393 28.6698 84.0861 30.3458C83.8271 31.5062 84.0214 31.9574 85.1221 32.2153C85.899 32.4087 86.676 33.1822 86.8702 33.8913C87.0644 34.6649 87.4529 35.245 87.7766 35.245C88.1004 35.245 88.3594 35.6963 88.3594 36.212C88.3594 36.7277 88.6183 37.1789 88.9421 37.1789C89.2658 37.1789 90.1075 38.3393 90.755 39.8219C91.7261 42.0137 92.1146 42.4005 93.4095 42.1426C94.7045 41.8848 94.8987 42.0137 94.5102 43.2385C94.2512 43.9476 93.9923 45.4947 93.9275 46.5906C93.7333 48.8468 94.834 52.1344 95.2872 50.8451C95.6757 49.9426 97.4238 49.8137 97.4238 50.7162C97.4238 51.0385 97.1648 51.3608 96.7763 51.3608C96.4526 51.3608 95.9346 52.1344 95.7404 53.0369C95.4814 54.0683 95.1577 54.4551 94.834 53.9394C94.5102 53.4237 94.2512 53.746 94.057 54.7774C93.798 55.9377 93.9923 56.26 94.7692 56.0666C95.6109 55.8732 95.8051 56.3245 95.6757 58.5807C95.6109 60.1278 95.3519 62.0617 95.1577 62.9642C94.9634 63.8667 94.7045 65.5427 94.5102 66.7675C94.316 67.9923 93.9275 69.1527 93.6038 69.3461C93.3448 69.5394 93.0858 70.1841 93.0858 70.6998C93.0858 71.2155 92.2441 72.956 91.2082 74.5031C90.1722 76.0502 88.9421 77.9841 88.4888 78.8221C87.1939 81.2073 81.7553 86.2999 79.6186 87.2024C78.5827 87.6536 76.8346 88.8784 75.7339 90.0387C74.0505 91.7792 73.7915 91.9082 73.3383 90.8768C73.0146 90.0387 72.8851 89.9743 72.8851 90.6834C72.8203 91.1991 71.4606 92.3594 69.7125 93.2619C67.3169 94.5512 66.6694 95.1958 66.6694 96.4851C66.6694 97.452 66.1515 98.8702 65.5688 99.7082C64.7918 100.804 64.5328 100.933 64.8566 100.095C65.245 98.9347 65.1803 98.9347 63.4969 100.031C61.6193 101.255 61.5545 102.609 63.4321 102.609C64.0796 102.609 64.7271 102.996 64.9213 103.447C65.245 104.414 60.7776 104.543 60.1948 103.512C59.3531 102.222 61.7487 98.5479 63.9501 97.7743C67.1874 96.4851 64.5976 96.2917 59.8064 97.3875C57.0223 98.0322 55.4036 98.0966 54.8857 97.6454C54.4325 97.3231 53.785 97.1941 53.3965 97.452C53.008 97.6454 52.7491 97.1941 52.6843 96.3561C52.6196 95.2603 52.4901 95.1958 52.2958 96.0338C51.9721 97.3875 51.4541 97.3875 49.7707 96.1627C49.1233 95.647 47.6341 95.1958 46.5334 95.1958C45.4328 95.1958 44.1378 94.7445 43.6846 94.2288C43.2314 93.7131 42.4544 93.2619 42.0012 93.2619C41.4833 93.2619 41.0948 92.9396 41.0948 92.5528C41.0948 92.166 40.6416 91.9726 40.1236 92.2305C39.6056 92.4239 39.1524 92.3594 39.1524 92.1016C39.1524 91.8437 38.3107 91.0701 37.21 90.49C36.1741 89.8453 34.9439 88.7495 34.5554 87.9759C33.8432 86.6867 33.9727 86.6867 35.9798 88.1693C37.21 89.0073 38.3107 89.7164 38.5049 89.7809C38.6992 89.7809 39.6704 90.1677 40.6416 90.5544C41.6775 91.0057 42.7782 91.328 43.1019 91.328C43.4256 91.328 43.6846 91.5859 43.6846 91.8437C43.6846 92.5528 47.2456 93.6487 52.4253 94.6156C57.2813 95.5181 58.8999 95.4536 60.7128 94.2933C61.4898 93.7776 63.3027 93.133 64.6623 92.8751C66.0867 92.6173 68.8708 91.4569 70.8132 90.2321C72.8203 89.0073 75.2159 87.5247 76.1871 86.9445C78.1295 85.7197 78.9064 84.4949 78.259 83.4635C78 83.0122 77.3525 83.399 76.7051 84.3015C75.6691 85.5908 75.4102 85.6552 74.439 84.8817C73.4678 84.1081 73.403 84.1081 73.5973 85.204C73.7268 86.1065 72.8203 86.9445 69.9715 88.5561C66.281 90.6189 64.0149 90.9412 66.6694 88.9429C67.3817 88.4272 67.8996 87.7181 67.7701 87.3957C67.7054 87.009 68.2234 86.8156 69.0003 86.9445C71.1369 87.2668 72.7556 84.4949 74.18 78.1775C75.7339 71.0866 75.0864 66.1229 72.1729 63.8022C71.3312 63.0931 71.3312 63.0287 72.3671 62.9642C72.9498 62.9642 73.4678 63.2865 73.4678 63.6733C73.4678 64.1245 74.18 64.2535 75.4102 63.9956C77.1583 63.6733 77.3525 63.8022 77.0288 65.0915C76.3166 68.3791 76.4461 69.4105 77.5468 70.1841C78.4532 70.8287 78.6475 71.5378 78.3237 72.8271C77.8705 74.5031 77.8058 74.5676 76.8993 73.4717C75.9929 72.3758 75.9929 72.3758 76.3166 73.4717C76.5108 74.1163 76.7051 74.9543 76.7051 75.2767C76.7051 76.3081 78.7769 75.9213 79.6834 74.6965C80.5251 73.6651 80.5251 73.6651 80.5898 74.8254C80.5898 75.7924 80.7841 75.8568 81.4963 75.2767C82.2085 74.6965 82.4675 74.6965 82.7264 75.3411C82.9207 75.8568 83.3092 75.4056 83.7624 74.3097C84.6041 72.1824 84.1509 71.2799 82.9854 72.8271C82.597 73.4072 81.8848 73.6651 81.4963 73.4072C80.4603 72.6981 79.8776 69.8618 80.6546 68.7659C81.1725 67.9279 81.4315 67.9923 82.338 69.2171C82.8559 70.0551 83.6976 70.6998 84.1509 70.6998C84.6688 70.6998 85.1868 71.0866 85.3163 71.4733C85.5753 72.118 85.8343 72.118 86.2875 71.4089C86.676 70.8287 87.0644 70.7642 87.3234 71.28C87.5824 71.6667 87.1939 72.4403 86.417 73.0849C85.7048 73.7295 85.1221 74.6965 85.1221 75.2767C85.1221 75.8568 84.6688 76.5015 84.1509 76.7593C83.6329 76.9527 83.1797 77.5329 83.1797 78.113C83.1797 78.6288 82.7264 79.08 82.2085 79.08C81.6905 79.08 81.2373 79.5312 81.2373 80.0469C81.2373 80.6271 80.7841 81.2073 80.2661 81.4007C79.2302 81.8519 78.9064 83.5924 79.8776 83.5924C80.7193 83.5924 87.0644 76.437 87.0644 75.4056C87.0644 74.9544 87.3234 74.5676 87.6472 74.5676C87.9709 74.5676 88.6183 73.5362 89.0068 72.3114C89.3953 71.0866 90.0427 70.0552 90.3665 70.0552C90.755 70.0552 90.8197 69.7973 90.6255 69.4105C90.4312 69.0882 90.6902 67.8634 91.2082 66.7031C91.7262 65.5427 92.1794 63.351 92.1146 61.8683C92.1146 60.4501 92.2441 58.9675 92.4383 58.6452C92.6326 58.3229 92.3736 55.8088 91.8556 52.9724C91.2729 50.2005 91.0139 47.3641 91.1434 46.784C91.3377 46.0749 91.1434 45.6881 90.6902 45.7525C90.3017 45.817 89.978 45.1079 90.0427 44.141C90.0427 43.174 89.8485 42.5294 89.5895 42.6583C89.3953 42.8517 88.4241 41.5624 87.5177 39.8864C85.9638 37.1145 80.5898 30.6682 80.5898 31.6351C80.5898 31.8285 79.7481 31.2483 78.7122 30.2814C77.6763 29.25 74.6979 27.7029 72.1081 26.7359C63.1732 23.4483 50.7419 23.964 43.0372 27.8962C39.6056 29.6367 33.2605 34.2781 32.7425 35.5029C32.6131 35.7607 31.9656 36.5988 31.2534 37.3079C30.6059 37.9525 28.8578 40.7244 27.4334 43.4319C25.491 47.1063 24.7788 49.3625 24.5198 52.2633C24.3256 54.4551 24.0018 56.9047 23.8076 57.8071C23.6134 58.7096 23.4839 61.8683 23.5486 64.7692C23.6781 70.4419 23.6134 70.1196 29.1168 80.0469C30.088 81.7874 31.3181 83.528 31.7714 83.7858C32.872 84.4304 32.9368 86.6222 31.9656 86.9445C31.3829 87.1379 31.3829 87.5891 31.9656 88.685C32.872 90.2966 32.2893 91.5214 31.3829 90.0387C30.9944 89.523 30.7354 89.3296 30.7354 89.7164C30.6707 90.0387 30.3469 89.652 29.9585 88.7495C29.57 87.847 29.311 86.7511 29.3758 86.2354C29.5052 85.3974 28.3398 82.4965 27.4981 81.6585C26.7859 80.9494 24.9083 77.0172 24.9083 76.1792C24.9083 75.7279 24.4551 74.5031 23.9371 73.5362C23.4191 72.5047 22.9659 70.6998 22.9659 69.5394C22.9659 68.4436 22.6422 67.4766 22.2537 67.4766C21.8005 67.4766 21.671 66.832 21.8005 65.865C21.9947 65.027 21.8652 64.189 21.5415 64.1245C21.2825 63.9956 20.9588 61.8683 20.8293 59.4187C20.7645 55.9377 20.5056 54.9063 19.7286 54.9063C19.2106 54.9063 18.7574 55.3575 18.6927 55.8733C18.5632 58.1939 18.3689 58.4518 16.815 58.4518C15.8438 58.4518 15.1316 58.065 15.1316 57.4848C15.0669 56.9691 15.0021 56.1311 14.9374 55.7443C14.8727 55.2931 15.3259 54.9063 15.8438 54.8418C16.8798 54.8418 18.6927 54.1972 20.3761 53.3592C20.894 53.0369 21.412 52.1344 21.5415 51.2964C21.671 50.4584 22.1889 48.2666 22.7717 46.5261C23.3544 44.7211 23.8723 42.7872 23.9371 42.0781C24.0018 41.4335 24.5198 40.6599 25.1025 40.3376C26.7212 39.4351 28.1456 37.8236 28.1456 36.9211C28.1456 36.4698 30.1527 34.2781 32.5483 31.9574C37.3395 27.3805 44.9148 23.1904 50.1592 22.2235C53.6555 21.5144 63.1084 21.3855 66.6694 21.9656C70.4247 22.5458 75.4102 24.2863 75.4102 24.9954C75.4102 25.3177 75.8634 25.5756 76.4461 25.5756C77.1583 25.5756 77.3525 25.8979 77.0936 26.607C76.8346 27.3805 76.9641 27.5739 77.6763 27.2516C78.1942 27.0582 78.6475 27.1871 78.6475 27.5095C78.6475 27.8962 78.9712 28.1541 79.2949 28.1541C79.6834 28.1541 79.8129 27.1227 79.5539 25.5756C79.2302 23.5772 79.3597 22.6747 80.2661 21.7078C81.6905 20.1607 81.2373 20.2251 83.6976 21.4499ZM69.7125 27.5739C71.0074 27.8962 72.6908 28.9277 73.403 29.8946C74.18 30.7971 74.7627 31.1839 74.7627 30.6682C74.7627 30.2169 75.5396 30.5392 76.5756 31.5706C77.5468 32.5376 78.6475 33.3111 78.9064 33.3111C79.6186 33.3111 83.8271 37.3079 83.8271 38.017C83.8271 39.1773 79.2949 38.017 77.4173 36.3409C76.3166 35.374 75.4102 34.8583 75.4102 35.1161C75.4102 36.1475 78.3237 38.9839 79.8129 39.4351C81.3668 39.8864 81.4963 40.2732 80.6546 41.6269C80.2661 42.2071 79.9424 42.2715 79.6834 41.8203C79.4244 41.4335 78.9064 41.2401 78.4532 41.4335C78 41.5624 77.2878 40.8533 76.8346 39.8864C75.9281 37.8236 74.0505 36.7277 70.2305 36.1475C68.6766 35.8897 67.6406 35.374 67.6406 34.8583C67.6406 34.3426 67.3817 33.9558 66.9932 33.9558C66.6694 33.9558 66.3457 34.4715 66.3457 35.0517C66.3457 35.9541 66.2162 36.0186 65.763 35.3095C65.3745 34.7293 64.3386 34.5359 62.461 34.7293C60.0006 34.9227 59.8064 34.8583 60.0654 33.569C60.2596 32.4731 60.0654 32.2153 59.1589 32.3442C58.5114 32.4731 57.6698 32.1508 57.4108 31.5706C56.6986 30.3458 53.4613 30.2814 52.6196 31.4417C52.2311 32.0863 52.1663 31.893 52.4253 30.7971C52.7491 29.7657 52.6843 29.4434 52.1663 29.7012C51.7779 29.9591 51.4541 30.5392 51.4541 30.9905C51.4541 31.5062 50.8067 31.6996 49.6413 31.5062C48.4758 31.3773 47.3751 31.6351 46.7277 32.3442C45.6917 33.3111 45.627 33.3111 45.627 32.2153C45.5623 31.1194 45.5623 31.1194 44.9148 32.2153C44.5911 32.7954 44.3968 33.569 44.5911 33.8913C44.7853 34.2136 44.5263 34.6004 44.0084 34.8583C43.4904 35.0517 43.0372 35.5029 43.0372 35.8252C43.0372 36.7922 45.1738 37.2434 45.7565 36.4054C46.0802 35.8897 46.2745 36.2765 46.2745 37.5013C46.2745 38.5327 46.0155 39.1128 45.7565 38.7261C45.4975 38.3393 44.7853 37.8236 44.1378 37.6302C43.2314 37.3079 42.8429 37.5013 42.5839 38.4682C42.3897 39.1773 41.9365 39.7575 41.6127 39.7575C41.289 39.7575 41.0948 40.1442 41.289 40.531C41.4185 40.9823 40.7063 41.8848 39.6704 42.4649C38.1812 43.4319 37.8575 44.0765 37.8575 46.1393C37.8575 47.7509 37.5337 48.7823 36.8863 49.0402C36.3683 49.2336 35.9151 49.8137 35.9151 50.3939C35.9151 51.0385 35.3324 51.3608 34.167 51.3608C33.131 51.3608 32.6778 51.103 33.0663 50.8451C33.39 50.5873 34.1022 49.4269 34.5554 48.2666C35.0734 47.1707 35.6561 46.2038 35.9798 46.2038C36.3036 46.2038 36.5626 45.8815 36.5626 45.4947C36.5626 45.1079 37.1453 44.012 37.8575 42.9806C38.5697 42.0137 38.9582 41.0467 38.7639 40.8533C38.5697 40.6599 39.0229 39.6285 39.8646 38.5327C41.6775 36.0831 41.2243 35.4384 38.9582 37.1789C38.0517 37.888 37.0158 38.4682 36.6273 38.4682C36.2388 38.4682 35.9151 38.855 35.8504 39.2418C35.8504 39.8864 35.7209 39.8864 35.4619 39.3062C35.2676 38.6616 34.8144 38.6616 33.908 39.1773C32.0303 40.1442 31.3181 42.5294 32.1598 44.979C32.6778 46.5261 32.6778 47.3641 32.0951 48.2021C31.7066 48.8468 31.3829 50.0716 31.3829 50.8451C31.3829 51.941 31.1886 52.0699 30.8002 51.4898C30.0232 50.265 29.4405 51.8765 30.088 53.5526C30.4764 54.7129 30.5412 54.7129 30.9297 53.6815C31.2534 52.779 31.8361 52.6501 33.3253 52.9724C35.6561 53.4881 39.3466 52.0699 38.8287 50.8451C38.6344 50.3939 38.8287 50.2005 39.1524 50.3939C39.9941 50.9096 39.9941 49.2336 39.1524 48.3955C38.8287 48.0732 38.6992 47.1707 38.8934 46.3327C39.2819 44.979 40.9005 44.4633 43.6846 44.8501C44.2026 44.9145 44.9795 45.0434 45.368 45.0434C45.7565 45.1079 45.9507 45.6881 45.7565 46.4616C45.4328 47.6864 45.368 47.6864 44.9148 46.4616C44.5263 45.4947 44.3968 45.4302 44.3968 46.3327C44.3321 46.9129 43.6846 47.493 42.9077 47.622C41.548 47.8154 41.4185 48.2021 41.289 51.5542C41.2243 53.9394 40.771 55.6154 40.1236 56.26C39.1524 57.227 39.1524 57.1625 39.4761 55.6799C39.7351 54.7774 39.6056 53.8749 39.2819 53.6815C38.3754 53.1658 36.4978 53.9394 36.951 54.6485C37.1453 54.9708 37.5337 55.0997 37.7927 54.9708C38.0517 54.7774 38.246 57.7427 38.1812 61.546C38.0517 67.0254 38.246 68.7014 39.0877 69.7973C39.6704 70.5064 40.4473 71.151 40.771 71.2155C41.1595 71.28 41.4185 71.6023 41.4185 71.9246C41.4185 74.4386 44.5911 72.1824 45.1738 69.3461C45.4328 67.8634 45.4328 67.9279 45.5623 69.5394C45.5623 70.5709 44.9795 71.989 43.9436 73.0849C42.6487 74.5031 42.325 75.4056 42.4544 77.7263C42.5839 79.5312 42.3897 80.6916 41.8717 80.885C41.3538 81.0139 41.0948 80.3693 41.0948 78.8866C41.0948 77.4039 40.6416 76.3725 39.8646 75.7924C39.1524 75.2767 38.5049 74.3097 38.3754 73.6006C38.1812 72.3114 36.6921 70.7642 35.7856 70.9576C35.2676 71.0221 32.6778 67.7989 32.6778 66.9609C32.6778 66.6386 33.1958 66.1874 33.8432 66.0584C34.4907 65.865 35.3324 64.6402 35.7209 63.351C36.3683 61.2882 36.3683 60.9658 35.5266 61.2882C34.8144 61.546 34.6202 61.3526 34.8792 60.5146C35.1381 59.87 34.8792 58.7741 34.3612 58.065C33.5195 56.9691 33.5842 56.7113 34.4259 55.6799C35.0087 55.0997 35.2676 54.3906 35.0087 54.1327C34.7497 53.8749 34.0375 54.3261 33.39 55.0997C32.8073 55.9377 31.7066 56.6468 31.0591 56.7757C28.9873 57.0981 29.5052 58.7741 31.6419 58.7741C33.908 58.7741 34.3612 59.6766 33.0015 61.3526C32.0303 62.6419 31.9656 62.5774 30.4117 60.708C28.8578 58.8386 28.793 58.8386 28.793 60.2567C28.793 61.0948 29.052 61.6105 29.3758 61.3526C29.6995 61.1592 30.2175 61.6105 30.4117 62.384C30.7354 63.351 31.2534 63.6088 32.2246 63.351L33.649 63.0287L32.2246 64.189C31.0592 65.1559 30.8649 65.8006 31.1886 67.7345C31.3829 68.9593 31.7714 69.8618 32.0951 69.6684C32.4188 69.475 32.6778 69.9262 32.6778 70.6353C32.6778 71.4089 33.131 71.989 33.649 71.989C34.167 71.989 34.6202 72.2469 34.6202 72.6337C34.6202 72.956 34.3612 73.2783 34.0375 73.2783C33.649 73.2783 32.6131 73.9874 31.6419 74.8899C30.2175 76.2436 30.0232 76.6949 30.7354 77.3395C31.3829 77.9197 31.5771 77.9197 31.8361 77.275C32.0303 76.8882 32.4836 76.5015 32.9368 76.5015C33.39 76.5015 34.1022 75.8568 34.4907 75.0188C35.0734 73.8585 35.2029 74.2453 35.2029 77.6618C35.2676 81.6585 36.6921 85.2685 37.9222 84.4949C38.246 84.3015 38.5049 84.366 38.5049 84.6883C38.5049 84.9461 39.2171 85.5263 40.1236 85.9776C41.4185 86.5577 41.7422 86.5577 41.6775 85.9776C41.4833 84.1081 41.807 82.3032 42.325 82.3032C42.6487 82.3032 43.0372 82.9478 43.1666 83.7213C43.2961 84.5594 43.7494 85.1395 44.2026 85.0751C44.5911 84.9461 44.9795 85.5263 44.9795 86.3643C44.9795 87.5247 45.109 87.5891 45.627 86.8156C46.145 86.042 46.2745 86.2354 46.2745 87.5891C46.2745 88.6205 46.5982 89.3941 47.0514 89.3941C47.6341 89.3941 47.6341 89.5875 47.1162 90.1032C46.0155 91.1991 38.6344 87.4602 34.8144 83.7213C32.9368 81.9164 31.3829 80.1114 31.3829 79.7246C31.3829 79.3378 31.1239 79.2089 30.7354 79.4023C30.4117 79.5957 30.088 79.4668 30.088 79.08C30.088 78.6932 29.5052 77.1461 28.8578 75.6634C28.1456 74.1808 27.4334 71.8601 27.1744 70.5064C26.9154 69.2171 26.4622 67.9923 26.2032 67.7989C25.491 67.3477 25.4262 57.1625 26.0737 57.1625C26.3974 57.1625 26.7212 55.0997 26.7859 52.5212C26.9154 48.5889 27.3039 47.1707 29.2463 43.4963C31.8361 38.5971 38.246 32.1508 42.1955 30.4103C43.5551 29.8301 45.6917 28.9277 46.8572 28.3475C48.0873 27.8318 50.4182 27.2516 52.0368 27.0582C53.7202 26.8648 55.1447 26.607 55.2742 26.478C55.7274 26.0913 67.1874 26.9938 69.7125 27.5739ZM91.7909 26.8648C92.3089 26.8648 92.3089 27.0582 91.7909 27.5739C90.9492 28.4119 89.0068 27.8962 89.0068 26.8004C89.0068 26.4136 89.46 26.2847 90.0427 26.478C90.6255 26.6714 91.4024 26.8648 91.7909 26.8648ZM16.4913 27.5095C16.4913 27.8318 16.2323 28.1541 15.8438 28.1541C15.5201 28.1541 15.1964 27.8318 15.1964 27.5095C15.1964 27.1227 15.5201 26.8648 15.8438 26.8648C16.2323 26.8648 16.4913 27.1227 16.4913 27.5095ZM25.5557 28.0896C25.5557 28.3475 25.1673 28.9277 24.7788 29.4434C24.3256 29.9591 24.714 29.7012 25.6205 28.9277L27.3686 27.445L29.1815 29.0566L31.0591 30.6682L28.8578 32.9244C27.3039 34.5359 26.009 35.245 24.7788 35.245C23.8076 35.245 22.9659 34.9872 22.9659 34.6004C22.9659 34.2781 23.4191 34.1492 23.9371 34.3426C25.1673 34.8583 28.3398 32.8599 27.7571 31.9574C27.4981 31.5062 26.9154 31.6996 26.2032 32.3442C25.6205 32.8599 24.6493 33.1822 24.0666 32.9888C23.5486 32.731 22.9012 32.8599 22.6422 33.2467C21.9947 34.3426 19.7286 34.0847 19.7286 32.9244C19.7286 32.2153 20.1171 32.0219 21.0235 32.3442C21.9947 32.6665 22.3184 32.4731 22.3184 31.5706C22.3184 30.926 22.7717 29.8301 23.2896 29.1855C23.8076 28.5409 24.0666 27.7028 23.8723 27.445C23.6781 27.1227 24.0018 27.0582 24.5198 27.2516C25.1025 27.445 25.5557 27.8318 25.5557 28.0896ZM87.0644 27.5095C87.0644 27.8318 86.9349 28.1541 86.8055 28.1541C86.6112 28.1541 86.2875 27.8318 86.0932 27.5095C85.899 27.1227 86.0285 26.8648 86.3522 26.8648C86.7407 26.8648 87.0644 27.1227 87.0644 27.5095ZM93.539 29.7657C93.539 30.926 92.1146 33.3111 91.5967 32.9888C91.2729 32.7954 90.3665 32.9244 89.5895 33.3111C87.7119 34.3426 87.5824 33.9558 89.0068 31.6996C89.7838 30.4748 90.8197 29.7012 91.8556 29.7012C92.7621 29.6367 93.539 29.7012 93.539 29.7657ZM57.2813 32.6665C57.2813 32.9888 57.0223 33.3111 56.6338 33.3111C56.3101 33.3111 55.9864 32.9888 55.9864 32.6665C55.9864 32.2797 56.3101 32.0219 56.6338 32.0219C57.0223 32.0219 57.2813 32.2797 57.2813 32.6665ZM9.82247 35.0517C9.56348 35.245 9.36924 35.0517 9.36924 34.6004C9.36924 34.1492 9.56348 33.9558 9.82247 34.1492C10.0167 34.407 10.0167 34.7938 9.82247 35.0517ZM51.0657 34.3426C51.6484 34.5359 52.1016 34.9872 52.1016 35.245C52.1016 35.8897 48.929 35.245 48.4758 34.5359C48.0873 33.8913 49.5765 33.7624 51.0657 34.3426ZM57.9287 35.5674C63.1084 36.3409 69.324 37.1789 69.9067 37.1789C70.2952 37.1789 70.1657 37.4368 69.7125 37.7591C69.2593 38.017 67.5111 38.017 65.8277 37.7591C64.1443 37.4368 60.6481 36.8566 58.123 36.4698C55.5331 36.0831 53.3965 35.5029 53.3965 35.1161C53.3965 34.7938 53.9145 34.6649 54.5619 34.8583C55.1447 35.0517 56.6986 35.374 57.9287 35.5674ZM25.9442 37.6302C25.2968 38.2748 24.714 37.3079 25.2968 36.4698C25.6852 35.7607 25.8147 35.7607 26.0737 36.4698C26.2032 36.9211 26.1385 37.4368 25.9442 37.6302ZM48.6053 37.1789C49.1233 37.1789 49.5118 37.4368 49.5118 37.8236C49.5118 38.1459 49.0585 38.4682 48.5406 38.4682C48.0226 38.4682 47.5694 38.3393 47.5694 38.2104C47.5694 38.0814 47.4399 37.5657 47.3751 37.05C47.2456 36.5988 47.2456 36.4054 47.3751 36.6632C47.5694 36.9855 48.0873 37.1789 48.6053 37.1789ZM53.008 38.7905C52.7491 39.3062 52.4901 39.7575 52.3606 39.7575C52.2311 39.7575 52.1016 39.3062 52.1016 38.7905C52.1016 38.2748 52.3606 37.8236 52.7491 37.8236C53.0728 37.8236 53.2023 38.2748 53.008 38.7905ZM74.1152 38.855C74.1152 39.7575 73.921 39.8219 73.0146 39.0484C72.3671 38.5971 71.7196 38.0814 71.5901 38.017C71.4606 37.888 71.9139 37.8236 72.6908 37.8236C73.5973 37.8236 74.1152 38.2103 74.1152 38.855ZM20.1818 38.9839C20.8293 38.4682 21.2825 38.4682 21.8005 38.9839C22.1889 39.3707 22.9012 39.4996 23.3544 39.3062C24.0018 39.1128 24.1313 39.3062 23.8723 39.9509C23.4839 41.1112 21.671 41.9492 21.671 41.0467C21.671 39.8219 19.5991 40.4021 19.2754 41.7558C19.0164 42.5938 18.5632 42.9162 17.9157 42.6583C17.3977 42.4649 16.556 42.6583 16.0381 43.1096C15.2611 43.7542 15.1964 43.5608 15.5849 41.9492C16.1028 39.693 17.7215 38.1459 18.6927 39.1128C19.0811 39.4996 19.5991 39.4996 20.1818 38.9839ZM55.1447 39.5641C54.8857 39.7575 54.6914 39.5641 54.6914 39.1128C54.6914 38.6616 54.8857 38.4682 55.1447 38.6616C55.3389 38.9194 55.3389 39.3062 55.1447 39.5641ZM50.5477 40.1442C50.224 41.0467 50.6124 41.1757 53.9792 40.9178C56.9575 40.7244 57.7345 40.8533 57.4755 41.498C57.0223 42.7228 50.7419 42.8517 50.2887 41.6269C50.1592 41.3046 49.7707 41.2401 49.3823 41.4335C49.0585 41.6269 49.1233 41.2401 49.6413 40.4666C50.6124 38.855 51.1304 38.7261 50.5477 40.1442ZM85.899 40.2087C85.899 40.8533 85.899 41.8848 85.8343 42.5938C85.7695 43.5608 85.9638 43.6253 86.676 43.0451C87.3882 42.4649 87.7119 42.8517 88.2946 45.1724C89.2011 48.7178 89.201 48.9757 88.3594 48.46C87.9709 48.2021 87.7119 48.8468 87.7119 49.8782C87.7766 51.5542 87.8414 51.5542 88.6183 50.5228C89.3953 49.5559 89.5248 49.8137 89.9133 53.1013C90.4312 57.9361 90.4312 57.6782 90.1075 61.0303C89.5895 65.7361 88.8773 68.1213 87.9709 68.1213C87.4529 68.1213 87.0644 68.3791 87.0644 68.7659C87.0644 69.9262 83.1149 67.67 82.1437 65.9295C81.0431 63.7378 81.0431 63.4154 82.0143 63.7378C82.8559 64.0601 85.1221 62.384 85.1221 61.4815C85.1221 61.1592 84.2804 61.0948 83.1797 61.3526C81.302 61.7394 81.2373 61.6749 81.2373 59.6121C81.2373 58.4518 81.4963 57.8071 81.7553 58.1939C82.4027 59.1609 85.1868 60.5791 85.5753 60.1278C86.0932 59.6121 84.4099 57.7427 83.7624 58.1295C83.1797 58.5162 81.2373 55.1642 81.2373 53.617C81.2373 53.0369 80.6546 52.6501 79.6186 52.6501C78.5827 52.6501 78 52.2633 78 51.6832C78 50.5228 78.0647 50.5228 80.2014 51.3608C81.2373 51.7476 81.9495 51.7476 82.2085 51.3608C82.4675 50.9741 82.2732 50.7162 81.8848 50.7162C81.4315 50.7162 81.561 50.0716 82.1437 48.9112C82.6617 47.8798 83.1797 45.6236 83.2444 43.8831C83.3092 42.1426 83.5034 40.3376 83.6976 39.8864C84.0861 38.7261 85.7695 38.9194 85.899 40.2087ZM68.9356 40.0153C68.9356 40.2087 68.6766 40.531 68.2881 40.7244C67.9644 40.9178 67.6406 40.7889 67.6406 40.4666C67.6406 40.0798 67.9644 39.7575 68.2881 39.7575C68.6766 39.7575 68.9356 39.8864 68.9356 40.0153ZM65.3745 41.1757C66.281 41.5624 66.9932 42.336 66.9932 42.7872C66.9932 43.5608 66.7989 43.4963 65.9572 42.7228C64.5328 41.2401 62.5257 41.4335 61.8135 43.1096C61.2955 44.4633 61.2308 44.3988 61.2308 42.4649C61.166 40.1442 62.3315 39.7575 65.3745 41.1757ZM74.5037 42.7228C75.6044 42.2715 75.6044 42.5938 74.6332 45.4302C73.921 47.2997 73.9857 47.6864 74.9569 48.2021C76.4461 49.0402 76.5756 54.0683 75.0864 53.5526C74.5685 53.2947 74.1152 52.4567 74.1152 51.6187C74.1152 50.7807 73.8562 50.0716 73.5325 50.0716C72.4318 50.0716 72.2376 47.2997 73.2735 45.7525C74.0505 44.5922 74.1152 44.012 73.5325 43.4319C73.144 43.0451 72.8851 42.1426 72.8851 41.369C73.0146 40.2732 73.0146 40.2732 73.2735 41.5624C73.4678 42.5294 73.921 42.9806 74.5037 42.7228ZM34.6202 42.0781C34.6202 42.5938 34.3612 42.8517 33.9727 42.6583C33.649 42.4649 33.3253 42.0137 33.3253 41.6269C33.3253 41.3046 33.649 41.0467 33.9727 41.0467C34.3612 41.0467 34.6202 41.498 34.6202 42.0781ZM44.9795 42.0137C44.9795 42.5294 44.5263 42.9806 43.9436 42.9806C43.0372 42.9806 43.0372 42.7872 43.6846 42.0137C44.1378 41.498 44.5911 41.0467 44.7206 41.0467C44.85 41.0467 44.9795 41.498 44.9795 42.0137ZM60.3243 42.4649C60.1301 42.9806 59.9359 42.7872 59.9359 42.0781C59.8711 41.369 60.0654 40.9823 60.2596 41.2401C60.4538 41.4335 60.5186 42.0137 60.3243 42.4649ZM59.2237 41.9492C59.2237 42.1426 58.8999 42.4649 58.4467 42.7228C57.9935 42.9806 57.9287 42.9162 58.1877 42.4649C58.6409 41.6914 59.2237 41.4335 59.2237 41.9492ZM101.697 43.4319C102.862 44.979 102.798 47.3641 101.632 48.5245C101.114 49.1046 100.661 49.2336 100.661 48.8468C100.661 48.46 99.8841 48.3311 98.7187 48.5245C97.5533 48.7823 96.7763 48.6534 96.7763 48.2666C96.7763 47.8798 97.4238 47.493 98.2007 47.3641C99.0424 47.2352 99.7546 46.655 99.9489 45.8815C100.143 44.8501 100.014 44.7856 99.2367 45.3658C98.5245 46.0104 98.136 45.8815 97.4885 44.8501C97.0353 44.0765 96.9058 43.3029 97.1001 43.1096C97.359 42.8517 97.8123 43.174 98.136 43.7542C98.8482 45.0434 100.92 44.5277 100.402 43.2385C99.8841 41.9492 100.661 42.1426 101.697 43.4319ZM65.0508 43.8831C65.0508 44.5277 64.5976 44.6567 63.6264 44.3988C62.2667 44.0765 62.2667 44.012 63.4969 43.5608C64.1443 43.3029 64.7918 43.0451 64.9213 43.0451C64.986 42.9806 65.0508 43.3674 65.0508 43.8831ZM77.1583 44.0765C76.8993 44.2699 76.7051 44.0765 76.7051 43.6253C76.7051 43.174 76.8993 42.9806 77.1583 43.174C77.3525 43.4319 77.3525 43.8186 77.1583 44.0765ZM49.965 44.0765C49.706 44.2699 49.3175 44.2699 49.0585 44.0765C48.8643 43.8186 49.0585 43.6253 49.5118 43.6253C49.965 43.6253 50.1592 43.8186 49.965 44.0765ZM58.8352 44.012C59.4179 44.2054 59.8711 44.9145 59.8064 45.4947C59.8064 46.1393 59.6769 46.2038 59.4179 45.6881C59.2884 45.3013 58.7057 44.9145 58.2525 44.9145C57.7345 44.9145 57.1518 44.5922 56.9575 44.2699C56.5043 43.5608 57.346 43.4319 58.8352 44.012ZM80.7193 44.3988C80.2661 44.8501 79.9424 45.6881 79.9424 46.3327C79.9424 47.0418 79.4892 47.493 78.8417 47.493C77.8705 47.493 77.8058 47.3641 78.6475 46.8484C79.1654 46.5261 79.3597 46.0749 79.1007 45.817C78.5827 45.2368 79.8129 43.6253 80.7841 43.6253C81.2373 43.6253 81.2373 43.8831 80.7193 44.3988ZM52.1016 44.9145C52.1016 45.2368 51.9721 45.5592 51.8426 45.5592C51.6484 45.5592 51.3246 45.2368 51.1304 44.9145C50.9362 44.5277 51.0657 44.2699 51.3894 44.2699C51.7779 44.2699 52.1016 44.5277 52.1016 44.9145ZM55.6626 44.9145C55.9216 45.3013 55.3389 45.5592 54.4325 45.5592C53.526 45.5592 52.7491 45.2368 52.7491 44.9145C52.7491 44.5277 53.3318 44.2699 53.9792 44.2699C54.6914 44.2699 55.4684 44.5277 55.6626 44.9145ZM68.0291 45.3013C67.8349 45.8815 67.6406 46.5906 67.6406 46.9129C67.6406 47.1707 67.1874 47.2997 66.6694 47.1063C65.1155 46.5261 65.4393 44.2699 67.0579 44.2699C68.0291 44.2699 68.2881 44.5277 68.0291 45.3013ZM20.5703 46.2038C20.3113 47.0418 19.6639 47.493 18.6279 47.493C17.7862 47.493 16.4913 47.8154 15.7144 48.2021C14.6137 48.7823 14.4842 48.7178 14.6784 47.7509C14.8079 46.9773 15.5849 46.5261 17.1388 46.3327C18.3689 46.2038 19.6639 45.817 20.0523 45.4947C20.894 44.6567 20.9588 44.7211 20.5703 46.2038ZM61.8135 46.5906C61.8135 47.1707 62.461 47.493 63.6264 47.493C64.6623 47.493 66.022 47.8798 66.6694 48.3955C67.8349 49.2336 67.5759 49.2336 64.7918 48.9757C62.5257 48.7178 61.5545 48.8468 61.1013 49.4914C60.7128 50.0716 60.5186 49.4914 60.5186 47.622C60.5186 45.9459 60.7776 44.979 61.166 45.2368C61.5545 45.4302 61.8135 46.0749 61.8135 46.5906ZM70.101 46.9773C69.9067 49.2336 68.2881 50.3294 68.2881 48.2666C68.2881 46.4616 68.9356 44.9145 69.7125 44.9145C70.0362 44.9145 70.2305 45.817 70.101 46.9773ZM58.5762 46.2038C58.5762 46.5261 58.2525 46.8484 57.864 46.8484C57.5403 46.8484 57.4108 46.5261 57.605 46.2038C57.7992 45.817 58.123 45.5592 58.3172 45.5592C58.4467 45.5592 58.5762 45.817 58.5762 46.2038ZM64.2091 46.0104C63.9501 46.2038 63.5616 46.2038 63.3027 46.0104C63.1084 45.7525 63.3027 45.5592 63.7559 45.5592C64.2091 45.5592 64.4033 45.7525 64.2091 46.0104ZM95.2872 47.2997C95.0282 47.493 94.834 47.2997 94.834 46.8484C94.834 46.3972 95.0282 46.2038 95.2872 46.3972C95.4814 46.655 95.4814 47.0418 95.2872 47.2997ZM48.2168 47.493C48.2168 47.8154 47.9579 48.1377 47.5694 48.1377C47.2456 48.1377 46.9219 47.8154 46.9219 47.493C46.9219 47.1063 47.2456 46.8484 47.5694 46.8484C47.9579 46.8484 48.2168 47.1063 48.2168 47.493ZM58.8352 48.2666C59.0294 48.0732 59.2237 48.3955 59.2237 48.9112C59.2237 49.7493 58.8352 49.8137 56.6986 49.2336C55.2742 48.8468 54.2382 48.3311 54.4325 48.0732C54.5619 47.8154 55.5331 47.8154 56.5691 48.1377C57.605 48.3955 58.6409 48.5245 58.8352 48.2666ZM48.4111 49.1691C48.9938 49.4269 49.5118 50.0071 49.5118 50.5228C49.5118 51.3608 49.3175 51.3608 48.4758 50.7162C46.4687 49.0402 44.7853 52.8435 44.9148 58.5807C44.9795 59.6121 44.7206 60.3857 44.3321 60.3857C44.0083 60.3857 43.6846 60.8369 43.6846 61.3526C43.6846 62.0617 44.2026 62.1906 45.627 61.8683C47.8931 61.4171 48.2168 62.1262 46.145 62.8997C44.2026 63.6088 42.3897 62.6419 42.3897 60.9014C42.3897 59.8055 42.2602 59.741 41.4185 60.3857C40.6416 61.0303 40.4473 61.0303 40.4473 60.1923C40.4473 59.6121 41.0948 58.7096 41.8717 58.1939C42.6487 57.6138 43.1019 57.1625 42.7782 57.1625C42.4544 57.1625 42.5839 56.7113 43.0372 56.1956C43.4256 55.6799 43.8141 53.8104 43.8141 52.0699C43.7494 48.9112 44.6558 47.8154 46.5982 48.5245C46.9867 48.6534 47.7636 48.9757 48.4111 49.1691ZM72.0434 51.0385C71.8491 51.2319 71.2017 51.1674 70.6189 50.9741C69.7125 50.6517 69.6478 50.3939 70.36 50.0071C71.2017 49.4914 72.6908 50.3939 72.0434 51.0385ZM58.7704 53.1658C58.5115 54.9063 58.2525 55.0997 57.4755 54.5195C56.7633 53.8749 56.7633 53.617 57.4108 53.1658C58.123 52.779 58.0582 52.5212 57.346 52.0699C56.6338 51.6187 56.6986 51.4253 57.6698 51.2319C58.3172 51.103 58.9647 50.9741 58.9647 50.9741C59.0294 51.0385 58.8999 52.0055 58.7704 53.1658ZM60.9718 52.1344C60.7776 52.6501 60.5833 52.4567 60.5833 51.7476C60.5186 51.0385 60.7128 50.6517 60.9071 50.9096C61.1013 51.103 61.166 51.6832 60.9718 52.1344ZM66.4105 52.7146C66.0867 53.5526 65.763 53.9394 65.763 53.4881C65.6983 52.5212 66.4105 50.5873 66.7342 50.9096C66.9284 51.0385 66.7342 51.8765 66.4105 52.7146ZM71.7844 52.779C72.8203 52.8435 73.8563 53.3592 73.9857 53.8749C74.2447 54.584 73.921 54.6485 72.7556 54.3261C68.3528 53.1658 68.2881 53.1658 68.2881 54.1972C68.2881 54.7129 69.065 55.6799 69.9715 56.3245C71.5254 57.2914 71.5901 57.4204 70.4895 57.8716C69.4535 58.2584 69.583 58.3873 71.0074 58.3873C73.403 58.4518 73.921 59.6121 71.8491 60.3857C70.0362 61.0948 68.6766 60.708 69.2593 59.6766C69.6478 59.0964 69.324 58.9675 67.5111 58.8386C67.0579 58.7741 66.4752 58.3229 66.2162 57.8071C65.8925 57.0981 65.763 57.227 65.763 58.2584C65.6983 60.1278 66.3457 61.7394 67.0579 61.2882C67.8349 60.8369 67.8349 60.708 66.4105 65.2204C65.1803 69.0237 65.1155 69.0882 64.6623 66.9609C64.4033 65.7361 63.8206 64.8981 63.3027 64.8981C62.6552 64.8981 62.3962 65.3493 62.6552 66.1229C62.8494 66.832 62.5904 67.5411 62.0725 67.7345C61.5545 67.9279 61.3603 68.508 61.6193 69.2171C62.0077 70.2485 61.943 70.2485 61.1013 69.4105C60.5833 68.8948 60.0654 67.8634 60.0654 67.1543C60.0006 66.4452 59.8064 64.8336 59.5474 63.5444C59.2237 61.3526 59.2884 61.2237 60.7776 61.4815C61.943 61.7394 62.5905 61.2882 63.6911 59.5477C64.4033 58.3229 65.0508 56.8402 65.0508 56.26C65.0508 55.5509 65.504 55.2286 66.2162 55.3575C67.0579 55.4865 67.3817 55.0352 67.5111 53.1013C67.7054 50.7807 67.8349 50.6517 68.8061 51.5542C69.3888 52.1344 70.7485 52.6501 71.7844 52.779ZM102.603 51.3608C102.603 51.6832 102.474 52.0055 102.344 52.0055C102.15 52.0055 101.827 51.6832 101.632 51.3608C101.438 50.9741 101.568 50.7162 101.891 50.7162C102.28 50.7162 102.603 50.9741 102.603 51.3608ZM65.0508 52.3278C65.0508 53.3592 62.7847 53.6815 62.202 52.7146C61.684 51.941 62.461 51.3608 63.8854 51.3608C64.5328 51.3608 65.0508 51.8121 65.0508 52.3278ZM15.1964 53.2947C15.1964 53.617 14.9374 53.9394 14.5489 53.9394C14.2252 53.9394 13.9015 53.617 13.9015 53.2947C13.9015 52.908 14.2252 52.6501 14.5489 52.6501C14.9374 52.6501 15.1964 52.908 15.1964 53.2947ZM53.008 56.9691C51.5836 58.0005 50.8067 58.065 50.8067 57.098C50.8067 56.7757 51.1304 56.6468 51.5189 56.9047C52.1016 57.227 52.1663 56.8402 51.8426 55.6154C51.5836 54.4551 51.6484 54.0038 52.1016 54.2617C52.4253 54.4551 52.9433 54.1327 53.267 53.4881C53.6555 52.5856 53.785 52.7146 53.9145 54.2617C54.1087 55.4865 53.785 56.389 53.008 56.9691ZM55.7921 54.0683C55.5979 54.584 55.4036 54.3906 55.4036 53.6815C55.3389 52.9724 55.5331 52.5856 55.7274 52.8435C55.9216 53.0369 55.9864 53.617 55.7921 54.0683ZM102.409 54.0683C102.215 54.584 102.021 54.3906 102.021 53.6815C101.956 52.9724 102.15 52.5856 102.344 52.8435C102.539 53.0369 102.603 53.617 102.409 54.0683ZM60.3243 54.7129C60.1301 55.2286 59.9359 55.0352 59.9359 54.3261C59.8711 53.617 60.0654 53.2303 60.2596 53.4881C60.4538 53.6815 60.5186 54.2617 60.3243 54.7129ZM78.4532 54.7129C78.259 55.2286 78.0647 55.0352 78.0647 54.3261C78 53.617 78.1942 53.2303 78.3885 53.4881C78.5827 53.6815 78.6475 54.2617 78.4532 54.7129ZM63.7559 55.2286C64.2738 55.5509 64.5328 56.0022 64.3386 56.1956C63.8206 56.7113 61.8135 55.8732 61.8135 55.1642C61.8135 54.4551 62.5257 54.4551 63.7559 55.2286ZM100.92 55.6799C101.503 55.422 101.956 55.5509 101.956 55.9377C101.956 56.3245 102.215 56.4534 102.539 56.1956C103.38 55.7443 103.186 58.6452 102.344 59.2253C101.956 59.4832 102.021 59.9989 102.474 60.5791C103.316 61.6105 103.121 67.7989 102.215 67.7345C98.654 67.4766 96.1289 66.5097 96.1289 65.5427C96.1289 62.4485 98.8482 61.0948 100.661 63.2865C101.827 64.7047 102.603 64.4469 102.603 62.5774C102.603 61.6749 102.344 61.0948 101.956 61.3526C101.632 61.546 101.309 61.3526 101.309 60.8369C101.309 60.3212 100.726 59.741 100.014 59.5477C99.3014 59.3543 98.7187 59.4832 98.7187 59.8055C98.7187 60.1278 98.4597 60.3857 98.136 60.3857C97.5533 60.3857 97.7475 57.227 98.4597 55.2286C98.7187 54.4551 98.8482 54.4551 99.3662 55.1642C99.6252 55.6799 100.337 55.8733 100.92 55.6799ZM49.6413 57.1625C49.9002 58.6452 49.706 59.0964 48.8643 59.0964C47.2456 59.0964 46.9867 58.5807 47.8284 56.8402C48.7995 54.7129 49.3175 54.8418 49.6413 57.1625ZM71.9786 55.6799C71.7196 55.8733 71.3312 55.8733 71.0722 55.6799C70.8779 55.422 71.0722 55.2286 71.5254 55.2286C71.9786 55.2286 72.1729 55.422 71.9786 55.6799ZM77.9352 55.9377C79.8129 56.5823 80.7193 57.8071 79.2949 57.8071C78.9064 57.8071 78.9064 58.3873 79.2949 59.4187C79.8776 60.9658 79.5539 62.9642 78.7122 62.9642C78.4532 62.9642 77.6115 62.513 76.8346 61.9328C75.5396 61.0303 75.4102 61.0303 75.3454 62.1262C75.3454 63.1576 75.2807 63.1576 74.7627 61.9973C73.8563 59.87 73.9857 59.0964 75.2807 59.5477C76.1871 59.87 76.1224 59.741 75.0864 58.903C74.3742 58.3229 73.403 57.8071 72.9498 57.8071C72.4966 57.8071 72.3023 57.4848 72.5613 57.098C72.7556 56.7113 73.5325 56.5179 74.18 56.7113C74.9569 56.9047 75.4102 56.7113 75.4102 56.1311C75.4102 55.0352 75.3454 55.0352 77.9352 55.9377ZM60.8423 56.8402C64.3386 57.8071 64.3386 57.8716 61.684 58.1939C60.6481 58.2584 59.8711 58.065 59.8711 57.7427C59.8711 57.3559 58.7704 57.227 56.9575 57.5493C55.2742 57.7427 54.044 57.6782 54.044 57.3559C54.044 55.6154 55.9864 55.4865 60.8423 56.8402ZM104.352 57.6138C104.093 57.8071 103.898 57.6138 103.898 57.1625C103.898 56.7113 104.093 56.5179 104.352 56.7113C104.546 56.9691 104.546 57.3559 104.352 57.6138ZM39.2819 59.87C38.8287 60.3212 38.5049 60.3857 38.5049 59.9989C38.5049 59.0964 39.2819 58.3229 39.7351 58.7741C39.8646 58.9675 39.6704 59.4832 39.2819 59.87ZM52.1016 60.9658C52.1016 61.3526 51.8426 61.8039 51.4541 61.9973C51.1304 62.1906 50.8067 61.9328 50.8067 61.4171C50.8067 60.8369 51.1304 60.3857 51.4541 60.3857C51.8426 60.3857 52.1016 60.6435 52.1016 60.9658ZM19.2754 63.351C19.4049 64.2535 19.1459 65.3493 18.6927 65.865C18.1747 66.3163 17.7862 66.8965 17.7862 67.0898C17.7862 67.2188 17.4625 68.1857 17.1388 69.1527L16.4266 70.8932L15.1964 68.3791C14.4842 67.0254 14.031 65.4783 14.2252 65.027C14.4194 64.5758 14.2252 64.3824 13.9015 64.5758C13.513 64.7692 13.254 64.7047 13.254 64.3179C13.254 63.5444 15.5849 62.7708 16.4266 63.2221C16.7503 63.4154 17.1388 63.1576 17.3977 62.6419C17.9157 61.1592 18.8869 61.4815 19.2754 63.351ZM58.5762 62.3196C58.5762 62.6419 58.3172 62.9642 57.9935 62.9642C57.605 62.9642 57.1518 62.6419 56.9575 62.3196C56.7633 61.9328 57.0223 61.6749 57.5403 61.6749C58.123 61.6749 58.5762 61.9328 58.5762 62.3196ZM70.8779 63.5444C70.8779 63.8667 70.4247 64.4469 69.9067 64.8981C69.3888 65.3493 69.1298 65.9295 69.324 66.2518C69.5183 66.5741 69.2593 66.832 68.6766 66.832C68.1586 66.832 67.5759 67.2188 67.4464 67.6056C67.2522 68.0568 67.0579 67.8634 67.0579 67.1543C66.9932 66.5097 67.6406 65.2849 68.4823 64.4469C69.9715 62.9642 70.8779 62.5774 70.8779 63.5444ZM42.3897 64.2535C42.3897 64.5758 41.9365 64.8981 41.3538 64.8981C40.8358 64.8981 40.5768 64.5758 40.771 64.2535C40.9653 63.8667 41.4185 63.6088 41.807 63.6088C42.1307 63.6088 42.3897 63.8667 42.3897 64.2535ZM43.4904 65.6717C43.2961 66.1874 43.1019 65.994 43.1019 65.2849C43.0372 64.5758 43.2314 64.189 43.4256 64.4469C43.6199 64.6402 43.6846 65.2204 43.4904 65.6717ZM49.5118 65.5427C49.5118 66.2518 49.2528 66.832 48.8643 66.832C48.5406 66.832 48.2168 67.0898 48.2168 67.4766C48.2168 68.0568 50.9362 67.9279 52.9433 67.1543C54.4325 66.5097 54.3677 67.6056 52.7491 68.637C51.2599 69.5394 51.0009 70.8287 52.4253 70.313C52.9433 70.0552 53.3965 70.2485 53.3965 70.6998C53.3965 71.0866 53.7202 71.2155 54.044 71.0221C54.4325 70.8287 54.6914 70.9576 54.6914 71.3444C54.6914 71.7957 54.1735 71.9246 53.3965 71.6667C52.2958 71.3444 52.1663 71.4733 52.4901 73.0849C52.7491 74.3742 52.5548 75.2122 51.8426 75.7924C51.2599 76.3081 50.8067 76.9527 50.8067 77.3395C50.8067 77.6618 51.4541 77.4684 52.1663 76.7593C53.2023 75.8568 53.526 75.7924 53.267 76.5015C53.1375 77.0172 52.1016 77.9197 51.0657 78.4354C50.0297 78.9511 49.0585 79.4668 48.8643 79.5957C48.1521 80.0469 50.6124 80.9494 51.7131 80.6271C52.4901 80.3693 52.7491 80.4982 52.4901 80.9494C51.7779 82.0453 49.9002 81.7874 48.4111 80.4337C47.4399 79.5312 47.1809 78.6932 47.4399 77.0816C47.7636 75.0188 47.8284 74.9544 48.4111 76.3725C49.3823 78.4354 49.8355 78.113 49.9002 75.2122C49.965 73.794 49.7707 72.6337 49.5118 72.6337C48.6701 72.6337 47.0514 74.8899 46.7277 76.5015C46.5334 77.404 46.5334 75.2122 46.7277 71.6667C46.9219 68.1213 47.1809 65.027 47.3751 64.7047C47.9579 63.7378 49.5118 64.3179 49.5118 65.5427ZM51.2599 65.6717C51.0657 66.1874 50.8714 65.994 50.8714 65.2849C50.8067 64.5758 51.0009 64.189 51.1952 64.4469C51.3894 64.6402 51.4541 65.2204 51.2599 65.6717ZM58.123 65.5427C57.9287 66.3163 58.123 66.832 58.5762 66.832C59.0942 66.832 59.2237 67.4122 58.9647 68.508C58.6409 69.7973 58.7704 70.2485 59.6769 70.4419C60.3243 70.6353 61.166 71.4733 61.5545 72.3114C62.202 73.7296 62.1372 73.9229 60.5186 74.5031C58.9647 75.0188 58.5115 74.8899 57.2813 73.4717C56.1158 72.1824 56.0511 71.7312 56.6986 71.28C57.2165 71.0221 57.6698 70.0552 57.6698 69.2816C57.7992 67.6056 56.7633 66.0584 55.9216 66.5741C54.8209 67.2188 55.3389 65.994 56.5043 65.1559C58.0582 63.9311 58.5114 64.0601 58.123 65.5427ZM45.4328 65.3493C45.1738 65.5427 44.7853 65.5427 44.5263 65.3493C44.3321 65.0915 44.5263 64.8981 44.9795 64.8981C45.4328 64.8981 45.627 65.0915 45.4328 65.3493ZM73.4678 72.956C73.2735 73.2783 73.0146 72.3114 72.8203 70.6998C72.6261 69.0882 72.6261 67.4766 72.8203 67.1543C73.0146 66.7675 73.2735 67.7989 73.4678 69.4105C73.662 71.0221 73.662 72.5692 73.4678 72.956ZM44.0731 69.8618C43.3609 70.5709 42.9724 69.6039 43.4904 68.3791C43.9436 67.2188 44.0083 67.2188 44.2026 68.3146C44.3321 68.9593 44.2673 69.6684 44.0731 69.8618ZM13.3835 69.5394C12.9303 69.9907 12.6065 70.0551 12.6065 69.6684C12.6065 68.7659 13.3835 67.9923 13.8367 68.4436C13.9662 68.637 13.772 69.1527 13.3835 69.5394ZM70.9427 69.5394C70.9427 69.9907 71.0722 71.0221 71.2664 71.7312C71.3959 72.6981 71.1369 73.2138 70.2305 73.4717C69.5183 73.6651 68.9356 73.6006 68.9356 73.3428C68.9356 73.0849 68.4823 72.3114 67.8996 71.6023C67.0579 70.5709 66.9284 70.5709 67.2522 71.4733C67.4464 72.118 67.3169 72.6337 66.9932 72.6337C66.281 72.6337 66.2162 72.2469 66.7342 70.1841C67.0579 69.1527 67.6406 68.7659 69.0003 68.7659C70.0362 68.7659 70.8779 69.1527 70.9427 69.5394ZM98.7187 75.0188C98.7187 77.5329 98.4597 78.4354 97.8123 78.4354C97.2943 78.4354 96.6468 77.8552 96.4526 77.1461C96.2584 76.437 95.8051 75.8568 95.4814 75.8568C94.316 75.8568 94.1865 72.5692 95.2872 70.6998L96.3879 68.8304L97.5533 70.1841C98.395 71.151 98.7187 72.5692 98.7187 75.0188ZM64.4033 70.6998C64.4033 71.0221 64.2738 71.3444 64.1443 71.3444C63.9501 71.3444 63.6264 71.0221 63.4321 70.6998C63.2379 70.313 63.3674 70.0552 63.6911 70.0552C64.0796 70.0552 64.4033 70.313 64.4033 70.6998ZM17.1388 72.6337C17.1388 72.956 16.815 73.2783 16.4266 73.2783C16.1028 73.2783 15.9733 72.956 16.1676 72.6337C16.3618 72.2469 16.6855 71.989 16.8798 71.989C17.0093 71.989 17.1388 72.2469 17.1388 72.6337ZM22.9659 77.3395C22.9659 77.6618 22.7069 77.7263 22.3832 77.4684C21.9947 77.275 21.5415 77.5329 21.2178 77.9841C20.635 79.0155 17.1388 80.0469 17.1388 79.1445C17.1388 78.8221 17.592 78.4354 18.11 78.1775C18.6279 77.9841 19.0811 77.2106 19.0811 76.5015C19.0811 75.7924 19.5344 74.4386 20.1818 73.5362L21.2178 71.9246L22.0595 74.3742C22.5774 75.7279 22.9659 77.0816 22.9659 77.3395ZM66.4752 74.8254C66.2162 75.2767 65.9572 75.1477 65.8277 74.3742C65.6983 73.794 65.3098 73.2783 64.986 73.2783C64.6623 73.2783 64.4033 72.956 64.4033 72.5048C64.4033 72.118 64.9213 72.3114 65.6983 72.956C66.4105 73.6006 66.7342 74.4386 66.4752 74.8254ZM79.7481 73.0849C79.4892 73.2783 79.2949 73.0849 79.2949 72.6337C79.2949 72.1824 79.4892 71.989 79.7481 72.1824C79.9424 72.4403 79.9424 72.8271 79.7481 73.0849ZM6.13194 73.5362C6.13194 73.6651 5.41974 73.9229 4.51329 74.0519C3.60685 74.2453 2.89464 74.1163 2.89464 73.8585C2.89464 73.5362 3.60685 73.2783 4.51329 73.2783C5.41974 73.2783 6.13194 73.4072 6.13194 73.5362ZM111.02 74.6965C111.02 75.5345 108.949 75.0833 108.625 74.1163C108.431 73.6651 108.819 73.5362 109.661 73.7296C110.438 73.9229 111.02 74.3742 111.02 74.6965ZM72.1729 77.5973C71.5254 78.6288 71.4607 78.5643 71.7844 77.1461C71.9786 76.2436 72.1729 75.0833 72.2376 74.5676C72.3024 74.0519 72.4966 74.2453 72.6261 75.0188C72.7556 75.7924 72.5613 76.9527 72.1729 77.5973ZM17.7862 76.2436C17.7862 76.7593 17.5272 77.1461 17.1388 77.1461C16.815 77.1461 16.4913 76.5659 16.4913 75.7924C16.4913 75.0833 16.815 74.6965 17.1388 74.8899C17.5272 75.0833 17.7862 75.7279 17.7862 76.2436ZM56.4396 75.6634C56.1806 75.8568 55.7921 75.8568 55.5331 75.6634C55.3389 75.4056 55.5331 75.2122 55.9864 75.2122C56.4396 75.2122 56.6338 75.4056 56.4396 75.6634ZM66.3457 76.5659C66.3457 76.8882 65.8925 77.1461 65.3098 77.1461C64.7918 77.1461 64.5328 77.404 64.7271 77.7907C65.3745 78.8866 66.9932 78.4998 66.9932 77.275C66.9932 76.3725 67.1227 76.3081 67.6406 77.1461C68.5471 78.5643 67.1874 79.7891 65.1155 79.2734C62.8494 78.7577 62.7847 78.6288 63.7559 76.8882C64.5328 75.4056 66.3457 75.2122 66.3457 76.5659ZM70.0362 76.3081C69.7773 76.5015 69.583 76.3081 69.583 75.8568C69.583 75.4056 69.7773 75.2122 70.0362 75.4056C70.2305 75.6634 70.2305 76.0502 70.0362 76.3081ZM38.5049 78.5643C38.5049 80.6916 37.4043 79.7891 37.3395 77.6618C37.2748 76.1791 37.469 75.8568 37.8575 76.5015C38.246 77.0172 38.5049 77.9841 38.5049 78.5643ZM58.5762 76.437C58.5762 76.7593 58.123 77.1461 57.605 77.404C56.6338 77.7263 56.3101 77.0816 57.087 76.3081C57.6698 75.6634 58.5762 75.7279 58.5762 76.437ZM60.9071 76.8238C61.8135 77.6618 61.8135 77.7907 60.9071 77.7907C60.3243 77.7907 59.8711 78.113 59.8711 78.4998C59.8711 78.8221 59.6121 78.9511 59.2237 78.7577C58.8999 78.5643 58.5762 78.8221 58.5762 79.3378C58.5762 79.918 58.2525 80.3693 57.864 80.3693C57.4755 80.3693 57.2813 80.1759 57.4108 79.8535C59.6121 75.3411 59.5474 75.4056 60.9071 76.8238ZM108.236 76.3081C107.977 76.5015 107.589 76.5015 107.33 76.3081C107.136 76.0502 107.33 75.8568 107.783 75.8568C108.236 75.8568 108.431 76.0502 108.236 76.3081ZM92.8916 77.0816C92.8916 77.404 92.4383 77.9841 91.9204 78.4354C90.8844 79.3378 90.755 79.08 91.3377 77.5329C91.7261 76.437 92.8916 76.1147 92.8916 77.0816ZM110.697 77.1461C110.891 77.4684 110.761 77.7907 110.438 77.7907C110.049 77.7907 109.726 77.4684 109.726 77.1461C109.726 76.7593 109.855 76.5015 109.985 76.5015C110.179 76.5015 110.502 76.7593 110.697 77.1461ZM69.583 79.5312C69.583 80.2403 66.2162 86.8156 65.6335 87.2024C64.7271 87.7181 64.9213 87.0734 66.3457 84.5594C67.0579 83.2701 67.6406 81.723 67.6406 81.0784C67.6406 80.4337 67.8349 79.7246 68.0939 79.5312C68.6118 78.9511 69.583 78.9511 69.583 79.5312ZM44.9795 80.3048C44.9795 80.6916 44.7206 81.1428 44.3321 81.3362C44.0083 81.5296 43.6846 81.2717 43.6846 80.756C43.6846 80.1759 44.0083 79.7246 44.3321 79.7246C44.7206 79.7246 44.9795 79.9825 44.9795 80.3048ZM46.4687 81.0139C46.2745 81.723 46.0155 82.3032 45.886 82.3032C45.7565 82.3032 45.627 81.723 45.627 81.0139C45.627 80.3048 45.886 79.7246 46.2097 79.7246C46.5334 79.7246 46.6629 80.3048 46.4687 81.0139ZM60.8423 80.3693C60.6481 80.6916 60.1948 81.0139 59.8064 81.0139C59.4826 81.0139 59.2237 80.6916 59.2237 80.3693C59.2237 79.9825 59.6769 79.7246 60.2596 79.7246C60.7776 79.7246 61.0365 79.9825 60.8423 80.3693ZM93.3448 80.756C94.1865 81.0139 94.7045 81.4007 94.5102 81.6585C94.316 81.9808 94.4455 82.3676 94.7692 82.6255C95.9994 83.3346 94.1217 86.1709 92.4383 86.1709C91.5966 86.1709 91.0139 85.9131 91.2729 85.5908C91.4672 85.2685 91.0139 84.5594 90.237 84.0437C89.2658 83.3346 89.0068 82.6899 89.3305 81.723C89.7838 80.3693 90.8197 80.1114 93.3448 80.756ZM57.4108 84.8172C56.8281 87.2024 57.346 88.5561 58.123 86.6222C58.382 86.1065 58.5115 86.2354 58.5115 86.88C58.5762 87.9115 56.2453 90.49 55.7274 89.9743C55.5979 89.8453 55.7274 88.4272 56.1158 86.8156C56.4396 85.204 56.7633 83.2056 56.7633 82.3676C56.7633 81.3362 56.9575 81.0784 57.4108 81.5296C57.9287 82.0453 57.9287 83.0122 57.4108 84.8172ZM61.2955 82.4321C60.8423 82.8833 60.5186 82.9478 60.5186 82.561C60.5186 81.6585 61.2955 80.885 61.7487 81.3362C61.8782 81.5296 61.684 82.0453 61.2955 82.4321ZM40.4473 82.6255C41.0948 83.399 41.0948 83.8503 40.5768 84.366C39.9941 84.9461 39.7999 84.8817 39.7999 83.9792C39.7999 83.399 39.5409 83.0767 39.1524 83.2701C38.8287 83.4635 38.5049 83.2056 38.5049 82.6899C38.5049 81.4007 39.4114 81.4007 40.4473 82.6255ZM46.9219 83.9147C46.0155 85.0106 44.9795 85.204 44.9795 84.237C44.9795 83.8503 45.4328 83.5924 45.9507 83.5924C46.4687 83.5924 46.9219 83.0767 46.9867 82.4321C46.9867 81.723 47.1162 81.6585 47.3751 82.1742C47.5694 82.6255 47.3104 83.399 46.9219 83.9147ZM54.6914 81.9164C54.6914 81.9808 54.3677 83.0122 53.9792 84.1726C53.008 86.9445 52.1016 86.7511 53.008 83.9147C53.3965 82.6899 53.9145 81.6585 54.1735 81.6585C54.4972 81.6585 54.6914 81.7874 54.6914 81.9164ZM24.6493 83.399C25.6205 84.6883 25.8147 86.1709 25.0378 86.1709C24.7788 86.1709 24.1961 85.2685 23.8076 84.237C22.9659 82.0453 23.3544 81.723 24.6493 83.399ZM65.0508 84.366C65.0508 84.8172 64.7918 84.8172 64.1443 84.3015C63.4321 83.7213 63.1732 83.7213 62.9789 84.3015C62.8494 84.7528 62.3315 84.8817 61.8782 84.6238C61.2955 84.237 61.2955 83.9147 61.8782 83.2056C62.6552 82.2387 65.0508 83.0767 65.0508 84.366ZM49.3175 84.0437C49.0585 84.237 48.8643 84.0437 48.8643 83.5924C48.8643 83.1412 49.0585 82.9478 49.3175 83.1412C49.5118 83.399 49.5118 83.7858 49.3175 84.0437ZM22.4479 85.3329C22.1889 86.6222 21.9947 86.8156 21.8005 85.9776C21.671 85.3974 21.153 84.8817 20.635 84.8817C20.1171 84.8817 19.8581 84.5594 20.0523 84.237C20.2466 83.8503 20.9588 83.5924 21.6062 83.5924C22.5774 83.5924 22.7069 83.9792 22.4479 85.3329ZM44.1378 84.6883C43.8789 84.8817 43.6846 84.6883 43.6846 84.237C43.6846 83.7858 43.8789 83.5924 44.1378 83.7858C44.3321 84.0437 44.3321 84.4304 44.1378 84.6883ZM51.0657 84.5594C50.8067 85.0751 50.3535 85.5263 49.9002 85.5263C49.447 85.5263 49.447 85.7197 50.0297 86.042C50.6124 86.4288 50.6772 87.009 50.224 88.1693C49.7707 89.3296 49.5765 89.4586 49.2528 88.7495C48.8643 87.7181 48.9938 86.4933 49.8355 84.6883C50.4182 83.3346 51.5836 83.2056 51.0657 84.5594ZM62.0077 87.7181C61.7487 89.1363 61.5545 89.2007 60.7776 88.4272C60.2596 87.9759 59.8711 86.9445 59.8711 86.1709C59.8711 85.0751 60.0654 84.9461 61.1013 85.4618C61.943 85.9131 62.202 86.6222 62.0077 87.7181ZM54.4325 88.8784C54.3677 91.3925 54.4972 91.6503 55.9864 91.7148C56.8928 91.7148 58.0582 91.1991 58.5762 90.5544C59.4826 89.4586 59.6121 89.523 60.2596 90.9412C60.9718 92.4239 60.8423 92.4883 57.9935 92.8751C54.3677 93.3264 50.0297 92.7462 49.0585 91.7148C48.7996 91.3925 49.7707 91.328 51.3246 91.5859C53.9145 91.9726 54.044 91.9082 53.3965 90.7478C52.9433 89.9098 52.9433 88.9429 53.3965 87.847C54.2382 85.5263 54.4972 85.7197 54.4325 88.8784ZM64.4033 86.8156C64.4033 87.1379 64.1444 87.4602 63.7559 87.4602C63.4321 87.4602 63.1084 87.1379 63.1084 86.8156C63.1084 86.4288 63.4321 86.1709 63.7559 86.1709C64.1444 86.1709 64.4033 86.4288 64.4033 86.8156ZM87.3882 86.8156C87.1939 87.1379 86.5465 87.4602 86.0285 87.4602C84.6688 87.4602 85.2515 88.9429 86.9349 89.7809C88.3594 90.49 88.3594 90.49 87.0644 91.6503C85.8343 92.8107 85.7695 92.7462 84.7336 90.3611C83.6976 87.847 83.9566 87.1379 86.0932 86.6222C86.8055 86.4288 87.4529 86.2999 87.5824 86.2354C87.7119 86.2354 87.5824 86.4288 87.3882 86.8156ZM98.8482 86.7511C98.3302 87.009 98.0713 87.7181 98.2007 88.2338C98.5892 89.9743 93.9275 95.3892 90.237 97.6454C87.3234 99.3859 87.0644 99.3859 87.0644 97.7743C87.0644 96.2917 91.3377 91.5214 92.0499 92.166C92.2441 92.4239 92.8916 92.0371 93.4095 91.2635C93.9923 90.4255 94.7692 90.0387 95.5462 90.2321C96.5173 90.49 96.7763 90.2321 96.7763 88.7495C96.7763 87.0734 97.4238 86.3643 99.0424 86.2354C99.4309 86.2354 99.3014 86.4288 98.8482 86.7511ZM51.9074 88.2338C51.7131 88.7495 51.5189 88.5561 51.5189 87.847C51.4541 87.1379 51.6484 86.7511 51.8426 87.009C52.0368 87.2024 52.1016 87.7825 51.9074 88.2338ZM64.7918 90.4255C64.5328 91.1991 64.1444 91.328 63.6911 90.8768C63.3674 90.5544 63.2379 89.7809 63.4969 89.1363C63.7559 88.3627 64.1443 88.2338 64.5976 88.685C64.9213 89.0073 65.0508 89.7809 64.7918 90.4255ZM29.1168 90.8123C28.5341 93.4553 28.5988 93.3908 27.2391 92.8751C26.6564 92.6173 26.2679 92.0371 26.4622 91.5859C26.6564 91.1346 26.5269 90.5544 26.2032 90.3611C25.9442 90.1677 25.5557 90.3611 25.4262 90.8123C25.232 91.2635 24.7788 91.328 24.3256 91.0701C23.2896 90.4255 25.8147 88.8784 28.0161 88.8139C29.3758 88.7495 29.5052 88.9429 29.1168 90.8123ZM89.6543 91.5859C89.6543 91.7792 89.3953 92.1016 89.0068 92.2949C88.6831 92.4883 88.3594 92.3594 88.3594 92.0371C88.3594 91.6503 88.6831 91.328 89.0068 91.328C89.3953 91.328 89.6543 91.4569 89.6543 91.5859ZM102.28 91.9726C102.474 92.2949 102.344 92.6173 102.021 92.6173C101.632 92.6173 101.309 92.2949 101.309 91.9726C101.309 91.5859 101.438 91.328 101.568 91.328C101.762 91.328 102.086 91.5859 102.28 91.9726ZM15.9086 93.004C16.6855 93.9065 16.6208 94.0355 15.5849 93.8421C14.8727 93.7131 14.2252 93.1974 14.031 92.7462C13.7072 91.6503 14.8727 91.7792 15.9086 93.004ZM37.21 92.9396C37.21 93.4553 37.5985 93.7131 38.1165 93.5197C39.7999 92.8751 40.0588 98.0322 38.3754 100.159C37.469 101.32 33.131 98.6123 33.7137 97.1941C33.9727 96.614 34.167 95.5826 34.2317 94.8735C34.2964 94.1644 34.5554 93.1974 34.8144 92.7462C35.5266 91.6503 37.21 91.7792 37.21 92.9396ZM75.9281 94.4222C76.0576 95.2603 75.7339 96.0338 75.1512 96.2272C74.5037 96.4851 74.1152 97.452 74.1152 98.8702C74.1152 100.74 73.921 100.997 73.2735 100.417C72.7556 100.031 72.1729 99.9016 71.9786 100.159C71.7196 100.353 71.5254 99.9661 71.5254 99.3214C71.5254 98.6123 71.1369 97.452 70.6189 96.8074C69.842 95.776 69.9715 95.4536 71.3959 94.2288C73.5325 92.3594 75.6691 92.4883 75.9281 94.4222ZM80.9136 93.1974C79.8776 94.0999 77.3525 94.6801 77.3525 93.971C77.3525 93.6487 78.1295 93.1974 79.1654 93.0685C80.1366 92.9396 81.0431 92.7462 81.2373 92.6817C81.3668 92.6817 81.2373 92.8751 80.9136 93.1974ZM28.5988 95.0024C28.3398 95.1958 28.1456 95.0024 28.1456 94.5512C28.1456 94.0999 28.3398 93.9065 28.5988 94.0999C28.793 94.3578 28.793 94.7445 28.5988 95.0024ZM16.4913 95.776C16.4913 96.0983 16.0381 96.4851 15.5201 96.7429C14.9374 96.9363 14.5489 96.7429 14.5489 96.1627C14.5489 95.647 15.0021 95.1958 15.5201 95.1958C16.0381 95.1958 16.4913 95.4536 16.4913 95.776ZM30.5412 96.2917C30.2822 96.4851 30.088 96.2917 30.088 95.8404C30.088 95.3892 30.2822 95.1958 30.5412 95.3892C30.7354 95.647 30.7354 96.0338 30.5412 96.2917ZM77.3525 96.4851C77.3525 96.8074 77.0288 97.1297 76.6403 97.1297C76.3166 97.1297 76.1871 96.8074 76.3813 96.4851C76.5756 96.0983 76.8993 95.8404 77.0936 95.8404C77.223 95.8404 77.3525 96.0983 77.3525 96.4851ZM81.8848 96.4206C81.8848 96.8074 81.6258 97.2586 81.2373 97.452C80.9136 97.6454 80.5898 97.3875 80.5898 96.8718C80.5898 96.2917 80.9136 95.8404 81.2373 95.8404C81.6258 95.8404 81.8848 96.0983 81.8848 96.4206ZM44.4616 97.5809C46.2745 99.1925 45.886 100.224 43.3609 100.224C42.1307 100.224 41.0948 99.9661 41.0948 99.6437C41.0948 99.3214 41.4185 99.0636 41.7422 99.0636C42.1307 99.0636 42.3897 98.4834 42.3897 97.7743C42.3897 96.2272 42.9077 96.1627 44.4616 97.5809ZM69.2593 97.8388C69.7773 99.3214 69.324 100.031 68.3528 99.3859C67.5111 98.8702 67.3817 96.4851 68.2234 96.4851C68.5471 96.4851 69.0651 97.0652 69.2593 97.8388ZM51.5189 98.4189C52.3606 98.4189 52.6196 98.7413 52.2958 99.4504C52.1016 100.031 52.2958 100.74 52.8138 101.062C53.5908 101.513 53.5908 101.642 52.7491 101.642C52.2311 101.642 51.3894 102.222 50.9362 102.931C49.965 104.543 47.1809 104.672 46.7924 103.06C46.5982 102.416 46.7277 101.191 47.0514 100.353C47.5694 98.8702 47.6989 98.8702 48.2816 99.8371C48.6701 100.482 49.3823 100.997 49.965 100.997C50.8714 100.997 50.8067 100.74 49.6413 99.7082C47.9579 98.1611 47.8284 97.452 49.2528 98.0322C49.8355 98.2256 50.8067 98.4189 51.5189 98.4189ZM76.1224 100.546C75.6044 101.062 75.4102 100.997 75.4102 100.288C75.4102 98.9991 76.2519 98.0966 76.5756 99.0636C76.7698 99.5148 76.5108 100.159 76.1224 100.546ZM84.9926 100.031C84.9278 100.933 84.6041 101.642 84.3451 101.642C84.0861 101.642 83.8271 102.029 83.8271 102.545C83.8271 103.125 83.2444 103.447 82.5322 103.383C80.9783 103.254 80.8488 102.609 82.2085 102.029C82.7264 101.835 83.1797 101.384 83.1797 101.062C83.1797 100.675 82.7912 100.546 82.2732 100.74C81.7553 100.933 81.1726 100.804 80.9136 100.417C80.7193 100.031 81.1726 99.4504 82.0143 99.128C84.4746 98.0966 85.1221 98.29 84.9926 100.031ZM96.7763 99.0636C96.7763 99.3859 96.6468 99.7082 96.5173 99.7082C96.3231 99.7082 95.9994 99.3859 95.8051 99.0636C95.6109 98.6768 95.7404 98.4189 96.0641 98.4189C96.4526 98.4189 96.7763 98.6768 96.7763 99.0636ZM56.5043 102.609C56.5691 104.285 56.3101 104.865 55.5979 104.865C55.0152 104.865 54.6914 104.478 54.8857 104.027C55.0152 103.64 54.8857 102.609 54.6267 101.771C54.1735 100.611 54.303 100.353 55.2742 100.353C56.1158 100.353 56.4396 100.869 56.5043 102.609ZM67.3169 101.642C67.5111 101.964 67.3817 102.287 67.0579 102.287C66.6694 102.287 66.3457 101.964 66.3457 101.642C66.3457 101.255 66.4752 100.997 66.6047 100.997C66.7989 100.997 67.1227 101.255 67.3169 101.642ZM58.7704 103.576C58.3172 105.381 57.9287 105.188 57.9287 103.189C57.9287 102.287 58.1877 101.707 58.5115 101.9C58.8352 102.093 58.9647 102.867 58.7704 103.576ZM88.8773 103.254C88.6831 103.447 88.2946 103.125 88.1004 102.48C87.7119 101.578 87.7766 101.513 88.4241 102.093C88.8773 102.545 89.0716 103.06 88.8773 103.254ZM44.1378 104.027C43.8789 104.221 43.6846 104.027 43.6846 103.576C43.6846 103.125 43.8789 102.931 44.1378 103.125C44.3321 103.383 44.3321 103.769 44.1378 104.027ZM52.2311 104.35C51.7779 104.801 51.4541 104.865 51.4541 104.478C51.4541 103.576 52.2311 102.802 52.6843 103.254C52.8138 103.447 52.6196 103.963 52.2311 104.35ZM72.4966 103.576C70.7484 104.35 70.2305 104.35 70.2305 103.576C70.2305 103.189 71.0074 102.931 72.0434 102.996C73.5973 102.996 73.662 103.06 72.4966 103.576ZM79.9424 105.188C79.4892 105.703 78.8417 106.155 78.518 106.155C78.1942 106.155 77.4173 106.606 76.8993 107.186C76.2519 107.831 75.1512 108.088 73.921 107.895C72.3671 107.702 71.5254 108.088 69.842 109.764C67.9644 111.763 66.4752 112.279 63.7559 112.021C62.9142 111.892 62.9142 111.956 63.7559 112.536C64.9213 113.31 64.5328 113.761 61.8782 114.535C59.7416 115.115 58.5115 114.341 59.8064 113.052C60.7128 112.15 60.7776 110.474 59.8711 110.989C59.5474 111.183 59.2237 111.054 59.2237 110.602C59.2237 110.087 58.7704 110.151 57.7992 110.86C56.9575 111.376 56.3101 112.472 56.3101 113.245C56.3101 114.083 55.9864 114.857 55.5331 114.986C54.303 115.437 53.9145 112.472 54.8857 110.087C55.7921 107.895 55.8569 107.895 60.5833 107.637C66.9932 107.315 66.9932 107.315 66.9932 106.541C66.9932 106.026 67.1227 106.026 67.5111 106.541C68.4176 107.895 69.9067 107.895 72.0434 106.67C73.144 105.961 74.1152 105.574 74.1152 105.768C74.1152 105.961 75.0864 105.703 76.2519 105.188C77.3525 104.672 78.8417 104.285 79.5539 104.221C80.5251 104.221 80.5898 104.414 79.9424 105.188ZM91.4024 107.895C91.1434 108.088 90.755 108.088 90.496 107.895C90.3017 107.637 90.496 107.444 90.9492 107.444C91.4024 107.444 91.5966 107.637 91.4024 107.895ZM54.1735 109.7C53.9792 111.054 53.7202 111.183 52.6843 110.602C50.9362 109.7 51.1304 108.088 53.008 108.088C54.2382 108.088 54.4325 108.346 54.1735 109.7ZM81.6905 108.54C81.4315 108.733 81.0431 108.733 80.7841 108.54C80.5898 108.282 80.7841 108.088 81.2373 108.088C81.6905 108.088 81.8848 108.282 81.6905 108.54ZM61.6193 117.565C61.3603 117.758 61.166 117.565 61.166 117.113C61.166 116.662 61.3603 116.469 61.6193 116.662C61.8135 116.92 61.8135 117.307 61.6193 117.565Z" fill="#991515"/>
</g>
<defs>
<filter id="filter0_d_225_6" x="0" y="0" width="119.7" height="124.7" filterUnits="userSpaceOnUse" color-interpolation-filters="sRGB">
<feFlood flood-opacity="0" result="BackgroundImageFix"/>
<feColorMatrix in="SourceAlpha" type="matrix" values="0 0 0 0 0 0 0 0 0 0 0 0 0 0 0 0 0 0 127 0" result="hardAlpha"/>
<feOffset dx="2" dy="5"/>
<feGaussianBlur stdDeviation="0.35"/>
<feComposite in2="hardAlpha" operator="out"/>
<feColorMatrix type="matrix" values="0 0 0 0 0 0 0 0 0 0 0 0 0 0 0 0 0 0 0.25 0"/>
<feBlend mode="normal" in2="BackgroundImageFix" result="effect1_dropShadow_225_6"/>
<feBlend mode="normal" in="SourceGraphic" in2="effect1_dropShadow_225_6" result="shape"/>
</filter>
</defs>
</svg>
