<svg xmlns="http://www.w3.org/2000/svg" width="120" height="125" fill="none"><g filter="url(#a)"><path fill="#991515" d="M52.425.306c-1.036.129-2.33.58-2.848.967-1.166.967-8.288 2.45-9.518 1.934-.453-.194-.907-.065-.907.258 0 .709-4.338 3.03-5.762 3.094-.906 0-2.33.709-8.093 3.997-.712.45-1.36 1.289-1.36 1.934 0 .644-.453 1.16-1.036 1.16-1.683 0-4.403 2.127-5.503 4.254-1.036 1.999-.971 2.063.712 3.482.971.902 1.424 1.675 1.036 1.933-.389.194-.712 1.16-.712 2.063 0 1.354-.13 1.547-.972.838-.517-.451-.97-1.225-.97-1.676 0-1.096-.778-1.16-1.814-.129-.518.516-.97.516-1.618 0-.712-.58-1.1-.386-1.748.903-.777 1.418-.777 1.74 0 2.191.518.387 1.489.645 2.136.645.583 0 1.1.258 1.1.58 0 .838-2.07 1.483-2.524.774-.26-.322-.971-.516-1.684-.451-.97.193-1.294.709-1.23 2.256.13 1.998-.647 2.772-1.23 1.16-.583-1.805-4.856 9.218-5.633 14.504-.194 1.74-.324 3.095-.13 3.095.13 0 1.037-.452 2.073-1.032.97-.645 2.2-.967 2.654-.773.518.193 1.166.45 1.554.58.324.129.648-.194.712-.71.13-2.191 1.1-5.156 1.684-5.156.388 0 .518.58.323 1.289-.259.967 0 1.29.907 1.29 1.036 0 1.165.322.842 1.74-.26 1.031-.713 1.87-1.036 1.998-.26.129-.518.774-.518 1.354 0 .644-.195 1.353-.454 1.611-.647.58-.777 15.858-.194 15.858.518 0 1.619 3.159 1.36 4.126-.065.322.324 1.483.842 2.578.518 1.096 1.165 2.837 1.424 3.933.259 1.031 1.295 3.223 2.33 4.77.972 1.611 1.684 3.352 1.49 3.932s.518 1.483 2.007 2.45c1.23.773 2.59 2.192 2.978 3.03.389.902.907 1.611 1.166 1.611s2.201 1.29 4.273 2.901c2.007 1.612 4.08 2.901 4.597 2.901.453 0 .842.387.842.773 0 .452 1.1 1.29 2.46 1.934 2.396 1.032 3.755 1.483 10.554 3.417 3.107.902 3.625 1.225 3.366 2.321-.194.644-.582 1.224-.841 1.224-1.619 0-7.122-1.611-7.122-2.063 0-.257-.583-.515-1.295-.515-1.23 0-4.791-1.676-9.388-4.448-1.036-.58-2.331-1.805-2.72-2.708-.453-.838-.841-1.224-.841-.902 0 .387-.583 1.031-1.23 1.418-1.166.709-1.23.645-.907-1.418.453-2.643-.518-4.061-2.59-3.932-.971.064-1.489.515-1.619 1.482s-.518 1.29-1.23 1.032c-.647-.258-.906-.13-.582.322a.92.92 0 0 1-.324 1.16c-.518.323-.648 0-.389-1.096.518-2.062-.13-4.448-1.23-4.448-.647 0-.712-.386-.259-1.611.648-1.612.26-3.546-.647-3.546-.324 0-.648.387-.842.774-.13.451-.453.645-.712.387-.26-.194.065-1.225.647-2.192l1.166-1.74-1.748.45c-1.101.259-1.748.13-1.748-.257 0-.71-2.137-5.866-3.238-7.865-.647-1.16-1.813-5.415-2.266-8.25-.194-.903-.583-3.16-.906-5.029-.389-1.934-.454-4.319-.26-5.415.39-1.87.39-1.87-2.136-1.547-1.36.193-2.137.193-1.683 0 .388-.193.777-.774.777-1.29 0-.515.582-.902 1.294-.902 1.295 0 2.59-1.74 2.59-3.61 0-1.418-1.877-2.707-3.431-2.32-.907.258-1.036.45-.324.838.648.386.648.709 0 1.353-1.036 1.032-.971 1.805.194 1.805.518 0 .971.258.971.645 0 .322-.388.645-.776.645-1.49-.065-3.108-1.74-3.173-3.288v-1.547L.888 51.94c-.777 1.934-.324 3.288 1.035 3.288.518 0 .972.322.972.709 0 .322-.26.451-.648.258-.324-.194-1.036.709-1.618 1.998-1.166 2.836-.648 7.09 1.035 8.573 1.49 1.225 1.49 1.612.195 2.901-.907.967-.907 1.354.323 4.9.777 2.127 1.36 4.19 1.36 4.576 0 1.483 6.669 14.247 7.834 14.956.713.451 1.23 1.031 1.23 1.29 0 .322 1.037 1.804 2.331 3.416 1.943 2.32 2.655 2.772 3.885 2.449.971-.258 1.554-.129 1.554.323 0 .386-.259.709-.647.709-.972 0-.777 1.289.194 1.289.388.064 2.266 1.354 4.014 2.965 4.014 3.675 12.302 7.607 20.33 9.67 3.367.838 6.216 1.676 6.41 1.805.13.129 1.1 0 2.137-.258 1.165-.387 2.654-.322 3.626.064 1.489.516 1.553.516.841-.386-.841-1.032-.388-3.224.583-2.643.324.257.777 1.289 1.036 2.385.453 1.934.453 1.934 4.273 1.74 2.072-.129 3.82-.387 3.82-.644 0-.194 1.23-.581 2.784-.838 4.014-.71 4.338-.774 8.547-2.257 5.503-1.934 9.388-3.803 9.388-4.448 0-.322.842-.773 1.877-1.031 1.037-.193 2.396-.967 3.044-1.676.582-.645 1.489-1.225 2.007-1.225s1.489-.58 2.201-1.225c1.166-1.031 1.23-1.418.453-2.578-.453-.774-1.036-1.354-1.295-1.354-.323 0-.518-.258-.518-.645 0-.322.389-.58.777-.451.454.065.907-.515 1.036-1.289.13-1.031.648-1.483 1.748-1.483 2.785 0 9.389-7.542 9.389-10.7 0-1.032 2.784-4.126 3.755-4.126.324 0 .583-.71.518-1.612-.065-1.805-.712-2.063-1.489-.773-.259.515-1.425 1.224-2.59 1.611-1.878.645-2.202.516-3.302-.967-1.748-2.32-3.367-1.611-3.367 1.483 0 1.74-.259 2.256-.906 1.998-.454-.193-1.23 0-1.684.387-.647.645-.777.451-.453-.645.194-.838.065-1.482-.324-1.482-.841 0-.064-3.223 1.1-4.513.454-.515 1.166-2.127 1.555-3.61.388-1.418 1.295-3.287 2.007-4.125s1.295-2.192 1.295-3.03.388-1.483.906-1.483c.454 0 1.23-.45 1.684-.967.518-.58 1.1-.773 1.424-.45.907.902-.129 2.707-1.489 2.707-.648 0-1.23.386-1.23.902 0 .903 1.877 1.676 4.402 1.676 1.749 0 1.943 1.29.13 1.354-2.525.193-2.914.322-2.719 1.16.064.451-.389 1.354-1.166 1.999-.712.58-1.295 1.482-1.295 1.933 0 1.225 2.525 4.126 3.756 4.32 1.489.193 4.661-3.61 4.661-5.673 0-.903.518-2.127 1.166-2.708.777-.709 1.1-1.805 1.036-3.158-.065-1.16.129-2.514.518-2.966 1.23-1.418.647-16.116-.777-20.112-.324-.903-.713-2.45-.842-3.417-.13-1.031-.453-2.063-.842-2.256-.323-.258-.647-1.547-.712-2.9-.065-1.355-.583-3.16-1.101-3.998-.582-.902-1.036-1.933-1.036-2.385 0-.45-.582-1.225-1.294-1.676s-1.295-.515-1.295-.258c0 .323-.842 1.483-1.943 2.579-1.877 1.998-2.331 1.934-1.554-.129.195-.58.907-1.031 1.489-1.031.713 0 .518-.323-.582-.838-1.101-.58-1.748-.645-2.072-.194-.259.387-.777.774-1.166.774-.323.064-.841.129-1.035.193-.259 0 .064.774.647 1.676.583.838 1.036 1.999 1.036 2.579 0 .644.324.838.777.58.518-.322.583-.129.324.58-.195.645-.195 1.096.064 1.096.777 0 2.202 3.868 1.878 5.093-.129.644.194 1.482.906 1.869 1.813 1.16 3.238 7.09 2.849 12.184-.518 6.317-.841 7.477-2.007 7.026-.518-.193-.842-.129-.647.129s-.195.838-.777 1.225c-1.036.58-1.101.193-1.036-4.9.065-5.93.453-7.67 2.331-8.96.647-.451 1.165-1.16 1.165-1.611 0-.516-.194-.516-.777.064-1.36 1.354-2.331.838-2.784-1.676-.194-1.29-1.101-3.674-2.007-5.221-.842-1.548-1.554-3.224-1.554-3.675s-.388-.709-.777-.58c-.453.193-1.554-.71-2.46-1.934-.907-1.225-2.007-2.256-2.525-2.256-.648 0-.324.644.777 1.805 1.748 1.805 2.33 3.996 1.1 3.996-.323 0-.647.452-.647.967 0 .516-.26.967-.648.967-.323 0-.647-.58-.647-1.289 0-.773-.389-1.29-.842-1.16-.453.129-1.813-.838-2.913-2.127-1.748-1.934-1.878-2.45-1.036-2.772.518-.194 1.489-.13 2.136.193.842.451 1.295.322 1.878-.645.971-1.482 1.036-4.448.13-4.448-.324 0-.648-.58-.648-1.289 0-1.418-.971-1.74-1.554-.516-.194.452-.259.258-.065-.45.194-.839-.388-2.064-1.813-3.546-2.395-2.514-7.38-6.64-8.481-7.027-.389-.129-1.166-.644-1.749-1.16-.582-.516-4.143-1.74-7.898-2.772-6.28-1.74-10.1-2.192-17.87-1.998-3.173.128-9.583 1.74-10.1 2.643-.195.322-.842.386-1.36.193-1.748-.645-13.468 5.608-14.374 7.671-.13.322-.518.516-.907.516-.388 0-1.36.709-2.2 1.611-.843.903-1.749 1.612-2.073 1.612-.259 0-1.165 1.16-2.007 2.578-.777 1.419-1.683 2.579-2.007 2.579-.583 0-3.885 5.157-3.885 6.06 0 .257.389.257.842.064.389-.193.13.129-.647.71-.842.58-1.49 1.482-1.49 1.933 0 .516-.259.903-.582.903-.324 0-.713.902-.972 1.998-.518 2.643-1.942 2.063-2.2-.903-.13-1.805.388-3.352 2.071-6.253 1.295-2.191 2.33-4.383 2.33-4.899 0-.515.713-1.225 1.555-1.547.841-.258 2.136-1.611 2.978-2.836.777-1.29 1.619-2.321 1.942-2.321.324 0 1.49-.967 2.655-2.127 1.166-1.096 2.266-2.063 2.46-2.063.26 0 1.166-.645 2.008-1.483.906-.838 2.654-2.127 3.884-2.9 1.23-.71 2.396-1.548 2.59-1.806.194-.193 2.137-1.095 4.338-1.933 2.849-1.096 3.95-1.805 3.755-2.45-.259-.71-.194-.774.648-.064.583.515 1.619.644 2.72.322 4.467-1.225 12.43-1.612 17.804-.967 7.77.967 9 1.225 12.108 2.385 6.733 2.514 7.51 3.094 19.1 13.86 4.338 4.06 6.215 4.705 6.215 2.191 0-.838.195-2.127.454-2.772.388-1.095.323-1.095-.971.065-.777.645-1.295 1.418-1.231 1.676.065.258-.129.516-.453.58-.324.065-.647-1.031-.647-2.32-.065-1.934.259-2.58 1.424-3.095 1.424-.644 1.942-1.611.777-1.611-.324 0-1.036-.838-1.619-1.934-.518-1.032-2.33-2.772-4.079-3.932-1.683-1.096-3.302-2.386-3.69-2.772-.583-.645-4.92-3.417-8.611-5.415-.842-.452-1.748-.645-2.072-.452-.389.258-.648.13-.648-.129 0-.322-.518-.58-1.1-.644-.648-.065-3.367-.71-6.022-1.483C69.39.306 57.605-.468 52.425.306m9.842 1.225a.78.78 0 0 1-.907 0c-.194-.258 0-.451.453-.451.454 0 .648.193.454.45M51.648 2.756c.454.45-1.424 3.48-2.136 3.48-.26 0-.648-.58-.842-1.289-.388-1.611 1.878-3.287 2.978-2.191m22.273 1.998c-.259.193-.453 0-.453-.451 0-.452.194-.645.453-.452a.77.77 0 0 1 0 .903m-27-.193c0 .193-.258.515-.646.709-.324.193-.648.064-.648-.258 0-.387.324-.71.648-.71.388 0 .647.13.647.259m7.576.838c-.259.193-.453 0-.453-.452 0-.45.194-.644.453-.45a.77.77 0 0 1 0 .902m-11.136.193c.194.322.259.645.065.645-.195 0-.518-.323-.713-.645-.194-.387-.259-.645-.064-.645.194 0 .518.258.712.645m9.194-.193a.78.78 0 0 1-.907 0c-.194-.258 0-.452.454-.452.453 0 .647.194.453.452m16.38.515c0 .323-.517.645-1.165.71-.647.064-1.23-.258-1.23-.71 0-.45.583-.773 1.23-.709.648.065 1.166.323 1.166.71m16.446.645c.194.516.13.967-.194.967s-.907-.451-1.36-.967c-.647-.774-.647-.967.194-.967.518 0 1.101.451 1.36.967M36.109 8.815c-1.23 1.418-1.877 1.225-1.295-.322.26-.516.842-.967 1.425-.967.842 0 .777.193-.13 1.29m26.158 5.157c.259 0 .906-.451 1.554-1.031 1.1-.967 1.23-.967 2.201 0 .777.709.971 1.676.712 3.158-.194 1.096-.194 1.612.065 1.096.518-1.289 2.33-2.578 2.978-2.127.26.129.324.58.065.903-.194.322-.583.45-.906.257-.648-.386-1.425 1.483-.907 2.321.194.322 0 .58-.388.58-.454 0-.648.451-.389.967.453 1.225-.906 1.29-2.46.13-.907-.645-1.036-1.226-.648-2.45.26-.838.454-1.934.324-2.45-.13-.58.194-.774.842-.516.582.258 1.036.13 1.036-.129 0-1.096-2.202-1.418-2.979-.451-.841 1.16-2.266.129-2.136-1.547.064-.71.13-.71.388.129.13.645.453 1.16.648 1.16m29.977-1.29c0 .323-.324.646-.712.646-.324 0-.453-.323-.26-.645.195-.387.519-.645.713-.645.13 0 .26.258.26.645m-38.2.646c.583.322 1.23.322 1.748-.13.583-.45 1.1-.45 1.683.065.518.387 1.101.451 1.425.194.259-.258.324.322.194 1.289-.194 1.031-.065 1.805.26 1.805.323 0 .388.644.193 1.353-.323.967-.259 1.225.26.967.388-.258.712-.064.712.387 0 .774-1.101.903-4.856.58-.907-.129-2.266-3.223-1.554-3.674 1.036-.645.582-1.998-.842-2.708-.842-.386-1.165-.709-.842-.709.389 0 1.101.194 1.619.58m-3.496 2.385c.259 1.353.712 2.836 1.036 3.223.453.58.323.967-.518 1.225-.713.258-2.525 1.031-4.144 1.74s-3.885 1.483-5.05 1.805c-1.878.387-2.072.323-1.748-.773.259-.838.13-1.225-.518-1.225-.583 0-1.166-.387-1.295-.838-.194-.387-.389-.13-.389.709-.13 2.514-1.618 1.225-1.748-1.418-.065-2.643.518-3.224 3.302-3.352 3.885-.194 4.209-.258 4.273-1.419 0-.967.065-.967.518.065.389 1.096.518 1.096 1.295.193.454-.58 1.425-1.031 2.072-1.031.712 0 1.23-.323 1.23-.645 0-.387.26-.644.648-.644.324 0 .777 1.095 1.036 2.385m1.554-1.483c0 .193-.26.516-.648.71-.324.193-.647.064-.647-.259 0-.386.323-.709.647-.709.389 0 .648.13.648.258m22.92 1.354c.194.515 1.1.967 2.007.967 1.424 0 1.618.258 1.618 2.256 0 1.225-.259 2.256-.647 2.256-.324 0-.647-.322-.647-.709 0-.322-.324-.451-.777-.193-.583.386-.583.58 0 .773.582.194.582.58.064 1.483-.518.967-.906 1.16-1.489.644-.453-.386-.971-.58-1.165-.386s-.648-.065-1.036-.516c-.518-.645-.518-1.547 0-3.416.388-1.354.712-2.901.582-3.353-.194-1.096 1.037-.967 1.49.194M23.225 16.68c-.194 2.514-1.036 4.383-1.943 4.383-1.23 0-1.165-1.031.065-1.547.583-.193.971-1.16.971-2.32 0-1.032.26-1.935.518-1.935.26 0 .454.645.389 1.419m73.357 2.9c-.259.194-.453 0-.453-.45 0-.452.194-.645.453-.452a.77.77 0 0 1 0 .902m1.943 0c-.26.194-.454 0-.454-.45 0-.452.195-.645.454-.452a.77.77 0 0 1 0 .902m-64.552 2.128c0 .838.647 1.547 1.618 1.934 2.072.773 2.072 2.191 0 3.094-2.46 1.16-4.208.967-5.568-.645-1.165-1.289-1.165-1.418-.13-2.707.648-.71 1.49-1.676 1.814-2.128.97-1.224 2.266-.966 2.266.452m49.725-.258c1.165.516 2.072 1.225 2.072 1.547s.453.451 1.035.193c.777-.257.972 0 .777 1.16-.13 1.226-.518 1.483-1.812 1.354-2.072-.193-2.979.452-3.497 2.45-.323 1.096-.259 1.354.13.71.906-1.29 2.136-.194 1.683 1.482-.259 1.16-.065 1.611 1.036 1.87.777.193 1.554.966 1.748 1.675.194.774.583 1.354.907 1.354.323 0 .582.451.582.967s.26.967.583.967c.324 0 1.166 1.16 1.813 2.643.971 2.192 1.36 2.578 2.654 2.32 1.295-.257 1.49-.128 1.101 1.096-.259.71-.518 2.257-.583 3.353-.194 2.256.907 5.543 1.36 4.254.389-.902 2.137-1.031 2.137-.129a.647.647 0 0 1-.648.645c-.323 0-.841.773-1.036 1.676-.259 1.031-.582 1.418-.906.902s-.583-.193-.777.838c-.259 1.16-.065 1.483.712 1.29.842-.194 1.036.258.907 2.514-.065 1.547-.324 3.48-.518 4.383-.195.903-.454 2.579-.648 3.803-.194 1.225-.583 2.386-.906 2.58-.26.192-.518.837-.518 1.353s-.842 2.256-1.878 3.803-2.266 3.481-2.72 4.32c-1.294 2.384-6.733 7.477-8.87 8.38-1.035.45-2.783 1.675-3.884 2.836-1.683 1.74-1.942 1.87-2.396.838-.323-.838-.453-.903-.453-.194-.065.516-1.424 1.676-3.172 2.579-2.396 1.29-3.044 1.934-3.044 3.223 0 .967-.517 2.385-1.1 3.223-.777 1.096-1.036 1.225-.712.387.388-1.16.323-1.16-1.36-.064-1.878 1.224-1.943 2.578-.065 2.578.648 0 1.295.387 1.49.838.323.967-4.144 1.096-4.727.065-.842-1.29 1.554-4.964 3.755-5.738 3.237-1.289.648-1.482-4.144-.386-2.784.644-4.402.709-4.92.257-.454-.322-1.101-.45-1.49-.193-.388.193-.647-.258-.712-1.096-.064-1.096-.194-1.16-.388-.322-.324 1.353-.842 1.353-2.525.129-.648-.516-2.137-.967-3.238-.967s-2.395-.451-2.848-.967c-.454-.516-1.23-.967-1.684-.967-.518 0-.906-.322-.906-.71 0-.386-.453-.58-.971-.322-.518.194-.972.13-.972-.128s-.841-1.032-1.942-1.612c-1.036-.645-2.266-1.74-2.655-2.514-.712-1.29-.582-1.29 1.425.193 1.23.838 2.33 1.547 2.525 1.612.194 0 1.165.387 2.137.773 1.035.452 2.136.774 2.46.774s.583.258.583.516c0 .709 3.56 1.805 8.74 2.772 4.856.902 6.475.838 8.288-.323.777-.515 2.59-1.16 3.95-1.418 1.424-.258 4.208-1.418 6.15-2.643 2.007-1.225 4.403-2.707 5.374-3.287 1.942-1.225 2.72-2.45 2.072-3.481-.259-.452-.906-.065-1.554.838-1.036 1.289-1.295 1.353-2.266.58-.971-.774-1.036-.774-.842.322.13.903-.777 1.74-3.625 3.352-3.691 2.063-5.957 2.385-3.303.387.713-.516 1.23-1.225 1.101-1.547-.065-.387.453-.58 1.23-.451 2.137.322 3.756-2.45 5.18-8.767 1.554-7.091.906-12.055-2.007-14.376-.842-.709-.842-.773.194-.838.583 0 1.1.322 1.1.71 0 .45.713.58 1.943.322 1.748-.323 1.943-.194 1.619 1.095-.712 3.288-.583 4.32.518 5.093.906.645 1.1 1.354.777 2.643-.453 1.676-.518 1.74-1.425.645-.906-1.096-.906-1.096-.582 0 .194.644.388 1.482.388 1.805 0 1.031 2.072.644 2.978-.58.842-1.032.842-1.032.907.128 0 .967.194 1.032.906.452.713-.58.972-.58 1.23.064.195.516.583.065 1.036-1.031.842-2.128.389-3.03-.777-1.483-.388.58-1.1.838-1.489.58-1.036-.709-1.618-3.545-.841-4.641.517-.838.776-.774 1.683.451.518.838 1.36 1.483 1.813 1.483.518 0 1.036.387 1.165.773.26.645.518.645.971-.064.389-.58.777-.645 1.036-.129.26.387-.13 1.16-.906 1.805-.712.645-1.295 1.612-1.295 2.192s-.453 1.224-.971 1.482c-.518.194-.971.774-.971 1.354a.994.994 0 0 1-.972.967.994.994 0 0 0-.97.967c0 .58-.454 1.16-.972 1.354-1.036.45-1.36 2.191-.388 2.191.841 0 7.186-7.155 7.186-8.186 0-.452.26-.838.583-.838.324 0 .971-1.032 1.36-2.257.388-1.224 1.036-2.256 1.36-2.256.388 0 .453-.258.258-.645-.194-.322.065-1.547.583-2.707s.971-3.352.907-4.835c0-1.418.13-2.9.323-3.223.195-.322-.064-2.836-.582-5.673-.583-2.772-.842-5.608-.713-6.188.195-.71 0-1.096-.453-1.032-.388.065-.712-.644-.647-1.611 0-.967-.195-1.612-.454-1.483-.194.194-1.165-1.096-2.071-2.772-1.554-2.772-6.928-9.218-6.928-8.25 0 .192-.842-.388-1.878-1.355-1.036-1.031-4.014-2.578-6.604-3.545-8.935-3.288-21.366-2.772-29.07 1.16-3.432 1.74-9.777 6.382-10.295 7.607-.13.258-.777 1.096-1.49 1.805-.647.645-2.395 3.416-3.82 6.124-1.942 3.674-2.654 5.93-2.913 8.831-.194 2.192-.518 4.642-.712 5.544-.195.903-.324 4.061-.26 6.962.13 5.673.065 5.35 5.569 15.278.971 1.74 2.201 3.481 2.654 3.739 1.101.644 1.166 2.836.195 3.159-.583.193-.583.644 0 1.74.906 1.612.323 2.836-.583 1.354-.389-.516-.648-.71-.648-.323-.064.323-.388-.064-.776-.966-.389-.903-.648-1.999-.583-2.515.13-.838-1.036-3.739-1.878-4.576-.712-.71-2.59-4.642-2.59-5.48 0-.451-.453-1.676-.97-2.643-.519-1.031-.972-2.836-.972-3.997 0-1.095-.324-2.062-.712-2.062-.454 0-.583-.645-.454-1.612.195-.838.065-1.676-.259-1.74-.259-.13-.582-2.257-.712-4.706-.064-3.481-.323-4.513-1.1-4.513-.518 0-.972.452-1.036.967-.13 2.32-.324 2.579-1.878 2.579-.971 0-1.683-.387-1.683-.967-.065-.516-.13-1.354-.195-1.74-.064-.452.389-.839.907-.903 1.036 0 2.849-.645 4.532-1.483.518-.322 1.036-1.225 1.165-2.063.13-.838.648-3.03 1.23-4.77.583-1.805 1.101-3.739 1.166-4.448.065-.645.583-1.418 1.165-1.74 1.62-.903 3.044-2.514 3.044-3.417 0-.451 2.007-2.643 4.402-4.964 4.791-4.576 12.367-8.767 17.611-9.733 3.497-.71 12.95-.838 16.51-.258 3.756.58 8.741 2.32 8.741 3.03 0 .322.453.58 1.036.58.712 0 .907.322.648 1.031-.26.774-.13.967.582.645.518-.194.971-.065.971.258 0 .386.324.644.648.644.388 0 .518-1.031.259-2.578-.324-1.999-.194-2.901.712-3.868 1.424-1.547.971-1.483 3.432-.258m-13.985 6.124c1.294.322 2.978 1.354 3.69 2.32.777.903 1.36 1.29 1.36.774 0-.451.777-.129 1.813.903.97.967 2.072 1.74 2.33 1.74.713 0 4.921 3.997 4.921 4.706 0 1.16-4.532 0-6.41-1.676-1.1-.967-2.007-1.483-2.007-1.225 0 1.032 2.914 3.868 4.403 4.32 1.554.45 1.683.837.842 2.19q-.584.872-.972.194c-.259-.386-.777-.58-1.23-.386-.453.128-1.165-.58-1.618-1.548-.907-2.062-2.784-3.158-6.604-3.739-1.554-.257-2.59-.773-2.59-1.289s-.26-.902-.648-.902c-.324 0-.647.515-.647 1.096 0 .902-.13.967-.583.258-.389-.58-1.424-.774-3.302-.58-2.46.193-2.655.128-2.396-1.161.195-1.096 0-1.354-.906-1.225-.648.13-1.49-.193-1.748-.773-.712-1.225-3.95-1.29-4.791-.13-.389.645-.454.452-.195-.644.324-1.031.26-1.354-.259-1.096-.388.258-.712.838-.712 1.29 0 .515-.647.709-1.813.515-1.165-.129-2.266.13-2.913.838-1.036.967-1.101.967-1.101-.129-.065-1.096-.065-1.096-.712 0-.324.58-.518 1.354-.324 1.676.194.323-.065.71-.583.967-.518.194-.97.645-.97.967 0 .967 2.136 1.418 2.719.58.323-.515.518-.129.518 1.096 0 1.032-.26 1.612-.518 1.225-.26-.387-.972-.902-1.62-1.096-.906-.322-1.294-.129-1.553.838-.194.71-.648 1.29-.971 1.29-.324 0-.518.386-.324.773.13.451-.583 1.354-1.619 1.934-1.489.967-1.812 1.611-1.812 3.674 0 1.612-.324 2.643-.972 2.901-.518.194-.97.774-.97 1.354q0 .967-1.749.967c-1.036 0-1.49-.258-1.1-.516.323-.258 1.035-1.418 1.488-2.578.518-1.096 1.101-2.063 1.425-2.063s.583-.322.583-.71c0-.386.582-1.482 1.294-2.513.713-.967 1.101-1.934.907-2.128-.194-.193.259-1.224 1.1-2.32 1.814-2.45 1.36-3.095-.906-1.354-.906.709-1.942 1.29-2.33 1.29-.39 0-.713.386-.778.773 0 .644-.13.644-.388.064-.194-.644-.648-.644-1.554-.129-1.878.967-2.59 3.352-1.748 5.802.518 1.547.518 2.385-.065 3.223-.388.645-.712 1.87-.712 2.643 0 1.096-.194 1.225-.583.645-.777-1.225-1.36.386-.712 2.063.388 1.16.453 1.16.842.129.323-.903.906-1.032 2.395-.71 2.331.516 6.022-.902 5.504-2.127-.195-.451 0-.645.323-.451.842.516.842-1.16 0-1.998-.323-.323-.453-1.225-.259-2.063.389-1.354 2.008-1.87 4.792-1.483.518.064 1.294.193 1.683.193.389.065.583.645.389 1.419-.324 1.224-.389 1.224-.842 0-.389-.967-.518-1.032-.518-.13-.065.58-.712 1.161-1.49 1.29-1.359.193-1.488.58-1.618 3.932-.065 2.385-.518 4.061-1.165 4.706-.972.967-.972.903-.648-.58.26-.903.13-1.805-.194-1.998-.907-.516-2.784.257-2.331.966.194.323.583.452.842.323.259-.194.453 2.772.388 6.575-.13 5.48.065 7.155.907 8.251.582.71 1.36 1.354 1.683 1.419.389.064.648.386.648.709 0 2.514 3.172.257 3.755-2.579.259-1.483.259-1.418.388.193 0 1.032-.582 2.45-1.618 3.546-1.295 1.418-1.619 2.32-1.49 4.641.13 1.805-.064 2.966-.582 3.159-.518.129-.777-.516-.777-1.998 0-1.483-.453-2.514-1.23-3.095-.713-.515-1.36-1.482-1.49-2.191-.194-1.29-1.683-2.837-2.59-2.643-.517.064-3.107-3.16-3.107-3.997 0-.322.518-.774 1.165-.903.648-.193 1.49-1.418 1.878-2.707.647-2.063.647-2.385-.194-2.063-.713.258-.907.065-.648-.773.26-.645 0-1.74-.518-2.45-.841-1.096-.777-1.354.065-2.385.583-.58.842-1.29.583-1.547-.26-.258-.971.193-1.619.967-.583.838-1.683 1.547-2.33 1.676-2.073.322-1.555 1.998.582 1.998 2.266 0 2.72.903 1.36 2.579-.972 1.289-1.036 1.224-2.59-.645-1.554-1.87-1.619-1.87-1.619-.451 0 .838.259 1.354.583 1.096.323-.194.841.258 1.036 1.031.323.967.841 1.225 1.813.967l1.424-.322-1.424 1.16c-1.166.967-1.36 1.612-1.036 3.546.194 1.224.582 2.127.906 1.933s.583.258.583.967c0 .774.453 1.354.971 1.354s.971.258.971.645c0 .322-.259.644-.582.644-.389 0-1.425.71-2.396 1.612-1.424 1.354-1.619 1.805-.907 2.45.648.58.842.58 1.101-.065.194-.387.648-.774 1.1-.774.454 0 1.166-.644 1.555-1.482.582-1.16.712-.774.712 2.643.065 3.996 1.49 7.606 2.72 6.833.323-.194.582-.129.582.193 0 .258.712.838 1.619 1.29 1.294.58 1.618.58 1.553 0-.194-1.87.13-3.675.648-3.675.324 0 .712.645.842 1.418.13.838.582 1.418 1.036 1.354.388-.129.776.451.776 1.29 0 1.16.13 1.224.648.45.518-.773.648-.58.648.774 0 1.032.323 1.805.776 1.805.583 0 .583.194.065.71-1.1 1.095-8.482-2.644-12.302-6.383-1.877-1.805-3.431-3.61-3.431-3.996s-.26-.516-.648-.323c-.323.194-.647.065-.647-.322s-.583-1.934-1.23-3.417c-.712-1.482-1.425-3.803-1.684-5.157-.259-1.289-.712-2.514-.97-2.707-.713-.451-.778-10.637-.13-10.637.323 0 .647-2.062.712-4.64.13-3.933.518-5.351 2.46-9.026 2.59-4.899 9-11.345 12.95-13.086 1.36-.58 3.496-1.482 4.661-2.062 1.23-.516 3.561-1.096 5.18-1.29 1.683-.193 3.108-.451 3.237-.58.453-.387 11.913.516 14.439 1.096m22.078-.71c.518 0 .518.194 0 .71-.842.838-2.784.322-2.784-.774 0-.386.453-.515 1.036-.322.582.193 1.36.387 1.748.387m-75.3.645a.647.647 0 0 1-.647.645c-.324 0-.648-.322-.648-.645 0-.386.324-.644.648-.644.388 0 .647.258.647.645m9.065.58c0 .259-.389.839-.777 1.354-.453.516-.065.258.841-.515l1.749-1.483 1.813 1.612 1.877 1.611-2.201 2.256c-1.554 1.612-2.849 2.321-4.08 2.321-.97 0-1.812-.258-1.812-.645 0-.322.453-.45.971-.257 1.23.515 4.403-1.483 3.82-2.386-.259-.45-.842-.257-1.554.387-.582.516-1.554.838-2.136.645-.518-.258-1.166-.13-1.425.258-.647 1.096-2.913.838-2.913-.323 0-.709.388-.902 1.294-.58.972.322 1.295.13 1.295-.773 0-.645.454-1.74.972-2.386.518-.644.777-1.482.582-1.74-.194-.322.13-.387.648-.193.582.193 1.036.58 1.036.838m61.508-.58c0 .323-.13.645-.258.645-.195 0-.519-.322-.713-.645-.194-.386-.065-.644.26-.644.388 0 .711.258.711.645m6.475 2.257c0 1.16-1.424 3.545-1.942 3.223-.324-.194-1.23-.065-2.007.322-1.878 1.032-2.008.645-.583-1.611.777-1.225 1.813-1.999 2.849-1.999.906-.064 1.683 0 1.683.065m-36.258 2.9a.647.647 0 0 1-.647.645c-.324 0-.648-.322-.648-.645 0-.386.324-.644.648-.644.388 0 .647.258.647.645M9.822 35.053c-.259.193-.453 0-.453-.452 0-.45.194-.644.453-.45a.77.77 0 0 1 0 .902m41.244-.71c.582.194 1.036.645 1.036.903 0 .645-3.173 0-3.626-.71-.389-.644 1.1-.773 2.59-.192m6.863 1.225c5.18.774 11.395 1.612 11.978 1.612.388 0 .259.258-.194.58-.454.258-2.202.258-3.885 0-1.684-.322-5.18-.902-7.705-1.29-2.59-.386-4.726-.966-4.726-1.353 0-.322.517-.451 1.165-.258.583.194 2.137.516 3.367.71M25.944 37.63c-.647.645-1.23-.322-.647-1.16.388-.71.518-.71.777 0 .13.451.064.967-.13 1.16m22.661-.451c.518 0 .907.258.907.645 0 .322-.453.644-.971.644s-.972-.129-.972-.258-.13-.644-.194-1.16c-.13-.451-.13-.645 0-.387.194.323.712.516 1.23.516m4.403 1.611c-.259.516-.518.968-.647.968-.13 0-.26-.452-.26-.968 0-.515.26-.966.648-.966.324 0 .453.45.259.967m21.107.065c0 .903-.194.967-1.1.193-.648-.45-1.295-.967-1.425-1.031-.13-.129.324-.193 1.1-.193.907 0 1.425.386 1.425 1.031m-53.933.129c.647-.516 1.1-.516 1.619 0 .388.387 1.1.516 1.553.322.648-.193.777 0 .518.645-.388 1.16-2.201 1.998-2.201 1.096 0-1.225-2.072-.645-2.396.709-.259.838-.712 1.16-1.36.902-.517-.193-1.359 0-1.877.452-.777.644-.842.45-.453-1.16.518-2.257 2.136-3.804 3.108-2.837.388.387.906.387 1.489-.13m34.963.58c-.26.194-.454 0-.454-.451s.195-.645.454-.451a.77.77 0 0 1 0 .902m-4.597.58c-.324.903.064 1.032 3.431.774 2.979-.194 3.755-.065 3.496.58-.453 1.225-6.733 1.354-7.186.129-.13-.322-.518-.387-.907-.194-.323.194-.259-.193.26-.966.97-1.612 1.488-1.74.906-.323m35.351.065c0 .644 0 1.676-.065 2.385-.065.967.13 1.031.842.451s1.036-.193 1.619 2.127c.906 3.546.906 3.804.064 3.288-.388-.258-.647.387-.647 1.418.065 1.676.13 1.676.906.645.777-.967.907-.71 1.295 2.578.518 4.835.518 4.577.195 7.93-.519 4.705-1.23 7.09-2.137 7.09-.518 0-.907.258-.907.645 0 1.16-3.95-1.096-4.92-2.837-1.1-2.191-1.1-2.514-.13-2.191.842.322 3.108-1.354 3.108-2.257 0-.322-.842-.386-1.942-.128-1.878.386-1.943.322-1.943-1.74 0-1.161.26-1.806.518-1.42.648.968 3.432 2.386 3.82 1.935.518-.516-1.165-2.385-1.813-1.998-.582.386-2.525-2.966-2.525-4.513 0-.58-.582-.967-1.618-.967S78 52.263 78 51.683c0-1.16.065-1.16 2.201-.322 1.036.387 1.749.387 2.008 0s.064-.645-.324-.645c-.454 0-.324-.644.259-1.805.518-1.031 1.036-3.287 1.1-5.028s.26-3.545.454-3.997c.388-1.16 2.072-.967 2.201.323m-16.963-.194c0 .194-.26.516-.648.71-.324.193-.647.064-.647-.258 0-.387.323-.71.647-.71.389 0 .648.13.648.258m-3.562 1.16c.907.387 1.62 1.161 1.62 1.612 0 .774-.195.71-1.037-.064-1.424-1.483-3.431-1.29-4.143.387-.519 1.353-.583 1.289-.583-.645-.065-2.32 1.1-2.708 4.143-1.29m9.13 1.548c1.1-.451 1.1-.13.13 2.707-.713 1.87-.648 2.256.323 2.772 1.49.838 1.619 5.866.13 5.35-.519-.257-.972-1.095-.972-1.933s-.259-1.547-.582-1.547c-1.101 0-1.295-2.772-.26-4.32.778-1.16.842-1.74.26-2.32-.389-.387-.648-1.29-.648-2.063.13-1.096.13-1.096.388.193.195.967.648 1.419 1.23 1.16m-39.884-.645c0 .516-.259.774-.647.58-.324-.193-.648-.644-.648-1.031 0-.322.324-.58.648-.58.388 0 .647.451.647 1.031m10.36-.064c0 .515-.454.967-1.036.967-.907 0-.907-.194-.26-.967.454-.516.907-.967 1.037-.967s.259.451.259.967m15.344.45c-.194.517-.388.323-.388-.386-.065-.709.13-1.096.324-.838.194.194.259.774.064 1.225m-1.1-.515c0 .194-.324.516-.777.774-.454.258-.518.193-.26-.258.454-.774 1.037-1.032 1.037-.516m42.473 1.483c1.165 1.547 1.101 3.932-.065 5.093-.518.58-.971.709-.971.322s-.777-.516-1.942-.322c-1.166.257-1.943.128-1.943-.258 0-.387.648-.774 1.425-.903.841-.129 1.554-.709 1.748-1.482.194-1.032.065-1.096-.712-.516-.712.644-1.101.516-1.748-.516-.454-.773-.583-1.547-.389-1.74.259-.258.712.064 1.036.644.712 1.29 2.784.774 2.266-.515s.259-1.096 1.295.193m-36.646.451c0 .645-.453.774-1.425.516-1.36-.322-1.36-.387-.13-.838.648-.258 1.296-.516 1.425-.516.065-.064.13.322.13.838m12.107.194c-.259.193-.453 0-.453-.452 0-.451.194-.644.453-.451a.77.77 0 0 1 0 .903m-27.193 0a.78.78 0 0 1-.907 0c-.194-.258 0-.452.454-.452.453 0 .647.194.453.452m8.87-.065c.583.193 1.036.902.971 1.483q0 .967-.388.193c-.13-.387-.712-.774-1.166-.774-.518 0-1.1-.322-1.294-.644-.454-.71.388-.838 1.877-.258m21.884.387c-.453.451-.777 1.29-.777 1.934 0 .709-.453 1.16-1.1 1.16-.971 0-1.036-.129-.195-.645.518-.322.713-.773.454-1.031-.518-.58.712-2.192 1.683-2.192.453 0 .453.258-.065.774m-28.617.515c0 .323-.13.645-.26.645-.194 0-.517-.322-.712-.645-.194-.386-.064-.644.26-.644.388 0 .712.258.712.644m3.56 0c.26.387-.323.645-1.23.645-.906 0-1.683-.322-1.683-.645 0-.386.583-.644 1.23-.644.712 0 1.49.258 1.684.644m12.367.387c-.194.58-.388 1.29-.388 1.612 0 .258-.454.387-.972.193-1.553-.58-1.23-2.836.389-2.836.971 0 1.23.258.971 1.031m-47.459.903c-.259.838-.906 1.289-1.942 1.289-.842 0-2.137.322-2.914.71-1.1.58-1.23.515-1.036-.452.13-.774.907-1.225 2.46-1.418 1.23-.13 2.526-.516 2.914-.838.842-.838.907-.774.518.709m41.244.387c0 .58.647.902 1.812.902 1.036 0 2.396.387 3.043.902 1.166.839.907.839-1.877.58-2.266-.257-3.238-.128-3.69.516-.39.58-.583 0-.583-1.869 0-1.676.259-2.643.647-2.385.389.193.648.838.648 1.354m8.287.386c-.194 2.257-1.813 3.352-1.813 1.29 0-1.805.648-3.353 1.425-3.353.323 0 .518.903.388 2.063m-11.525-.773c0 .322-.324.644-.712.644-.324 0-.453-.322-.259-.644.194-.387.518-.645.712-.645.13 0 .26.258.26.645m5.633-.194a.78.78 0 0 1-.906 0c-.195-.258 0-.45.453-.45s.647.192.453.45m31.078 1.29c-.259.193-.453 0-.453-.452 0-.45.194-.644.453-.45a.77.77 0 0 1 0 .902m-47.07.193a.647.647 0 0 1-.648.645c-.323 0-.647-.323-.647-.645 0-.387.324-.645.647-.645.389 0 .648.258.648.645m10.618.774c.194-.194.389.128.389.644 0 .838-.389.903-2.525.323-1.425-.387-2.46-.903-2.267-1.16.13-.259 1.101-.259 2.137.064 1.036.258 2.072.387 2.266.129m-10.424.902c.583.258 1.1.838 1.1 1.354 0 .838-.194.838-1.035.193-2.007-1.676-3.69 2.127-3.561 7.865.065 1.031-.194 1.805-.583 1.805-.324 0-.647.45-.647.967 0 .709.518.838 1.942.515 2.266-.45 2.59.258.518 1.032-1.942.709-3.755-.258-3.755-1.999 0-1.096-.13-1.16-.971-.515-.777.644-.972.644-.972-.194 0-.58.648-1.482 1.425-1.998.777-.58 1.23-1.032.906-1.032s-.194-.45.26-.966c.388-.516.776-2.386.776-4.126-.065-3.159.842-4.255 2.784-3.545.389.128 1.166.45 1.813.644m23.632 1.87c-.194.193-.841.128-1.424-.065-.906-.322-.971-.58-.259-.967.842-.516 2.33.387 1.683 1.032M58.77 53.166c-.259 1.74-.518 1.934-1.295 1.354-.712-.645-.712-.903-.064-1.354.712-.387.647-.645-.065-1.096s-.647-.645.324-.838l1.295-.258c.064.065-.065 1.032-.195 2.192m2.202-1.032c-.194.516-.389.323-.389-.386-.064-.71.13-1.096.324-.838.194.193.259.773.065 1.224m5.438.58c-.323.839-.647 1.225-.647.774-.065-.967.647-2.9.971-2.578.194.129 0 .967-.323 1.805m5.374.065c1.036.064 2.072.58 2.202 1.096.259.709-.065.773-1.23.451-4.403-1.16-4.468-1.16-4.468-.129 0 .516.777 1.483 1.684 2.127 1.553.967 1.618 1.096.518 1.548-1.036.386-.907.515.517.515 2.396.065 2.914 1.225.842 1.999-1.813.709-3.172.322-2.59-.71.389-.58.065-.709-1.748-.837-.453-.065-1.036-.516-1.295-1.032-.323-.709-.453-.58-.453.451-.065 1.87.583 3.481 1.295 3.03.777-.451.777-.58-.648 3.932-1.23 3.804-1.294 3.868-1.748 1.74-.259-1.224-.841-2.062-1.36-2.062-.647 0-.906.451-.647 1.225.194.709-.065 1.418-.583 1.611s-.712.774-.453 1.483c.389 1.032.324 1.032-.518.194-.518-.516-1.036-1.548-1.036-2.257-.064-.709-.259-2.32-.518-3.61-.323-2.191-.259-2.32 1.23-2.062 1.166.257 1.813-.194 2.914-1.934.712-1.225 1.36-2.708 1.36-3.288 0-.71.453-1.031 1.165-.902.842.129 1.166-.323 1.295-2.257.194-2.32.324-2.45 1.295-1.547.583.58 1.943 1.096 2.978 1.225m30.819-1.418c0 .322-.129.645-.259.645-.194 0-.517-.323-.712-.645-.194-.387-.064-.645.259-.645.389 0 .712.258.712.645m-37.552.967c0 1.031-2.266 1.353-2.849.387-.518-.774.259-1.354 1.683-1.354.648 0 1.166.451 1.166.967m-49.855.967a.647.647 0 0 1-.647.644c-.324 0-.647-.322-.647-.644 0-.387.323-.645.647-.645.388 0 .647.258.647.645m37.812 3.674c-1.424 1.032-2.201 1.096-2.201.129 0-.322.323-.451.712-.193.583.322.647-.065.324-1.29-.26-1.16-.195-1.611.259-1.353.323.193.841-.13 1.165-.774.389-.902.518-.773.647.774.195 1.224-.129 2.127-.906 2.707m2.784-2.9c-.194.515-.388.322-.388-.388-.065-.709.13-1.095.323-.837.195.193.26.773.065 1.224m46.617 0c-.194.515-.388.322-.388-.388-.065-.709.129-1.095.323-.837.195.193.259.773.065 1.224m-42.085.644c-.194.516-.388.322-.388-.387-.065-.709.13-1.096.324-.838.194.194.259.774.064 1.225m18.13 0c-.195.516-.39.322-.39-.387-.064-.709.13-1.096.325-.838.194.194.258.774.064 1.225m-14.698.516c.518.322.777.773.583.967-.518.515-2.526-.323-2.526-1.032s.713-.709 1.943.065m37.164.45c.583-.257 1.036-.128 1.036.259 0 .386.259.515.583.258.841-.452.647 2.45-.195 3.03-.388.257-.323.773.13 1.353.842 1.032.647 7.22-.259 7.155-3.561-.257-6.086-1.224-6.086-2.191 0-3.095 2.72-4.448 4.532-2.257 1.166 1.419 1.942 1.16 1.942-.709 0-.902-.259-1.482-.647-1.224-.324.193-.647 0-.647-.516s-.583-1.096-1.295-1.29c-.713-.193-1.295-.064-1.295.259a.58.58 0 0 1-.583.58c-.583 0-.388-3.159.324-5.157.259-.774.388-.774.906-.065.26.516.971.71 1.554.516m-51.279 1.483c.26 1.483.065 1.934-.777 1.934-1.618 0-1.877-.515-1.036-2.256.971-2.127 1.49-1.998 1.813.322M71.98 55.68a.78.78 0 0 1-.907 0c-.194-.258 0-.451.453-.451.454 0 .648.193.454.45m5.956.258c1.878.644 2.784 1.87 1.36 1.87-.389 0-.389.58 0 1.61.583 1.548.259 3.546-.583 3.546-.259 0-1.1-.451-1.877-1.031-1.295-.903-1.425-.903-1.49.193 0 1.032-.064 1.032-.582-.129-.907-2.127-.777-2.9.518-2.45.906.323.841.194-.195-.644-.712-.58-1.683-1.096-2.136-1.096s-.648-.322-.389-.709c.195-.387.971-.58 1.619-.387.777.194 1.23 0 1.23-.58 0-1.096-.065-1.096 2.525-.193m-17.093.902c3.497.967 3.497 1.032.842 1.354-1.036.064-1.813-.129-1.813-.451 0-.387-1.1-.516-2.913-.194-1.684.194-2.914.13-2.914-.193 0-1.74 1.942-1.87 6.798-.516m43.51.774c-.259.193-.454 0-.454-.451 0-.452.195-.645.454-.452a.77.77 0 0 1 0 .903m-65.07 2.256c-.453.451-.777.516-.777.129 0-.903.777-1.676 1.23-1.225.13.194-.065.71-.453 1.096m12.82 1.096c0 .387-.26.838-.648 1.031-.324.194-.647-.064-.647-.58 0-.58.323-1.031.647-1.031.389 0 .648.258.648.58M19.275 63.35c.13.903-.13 1.998-.582 2.514-.518.451-.907 1.032-.907 1.225 0 .129-.324 1.096-.647 2.063l-.712 1.74-1.23-2.514c-.713-1.354-1.166-2.9-.972-3.352s0-.645-.323-.451c-.389.193-.648.129-.648-.258 0-.774 2.33-1.547 3.173-1.096.323.193.712-.064.97-.58.519-1.483 1.49-1.16 1.878.709m39.301-1.031c0 .322-.259.644-.583.644-.388 0-.841-.322-1.035-.644-.195-.387.064-.645.582-.645.583 0 1.036.258 1.036.645m12.302 1.224c0 .323-.453.903-.971 1.354s-.777 1.032-.583 1.354-.065.58-.647.58c-.518 0-1.101.387-1.23.774-.195.45-.39.257-.39-.452-.064-.644.584-1.87 1.425-2.707 1.49-1.483 2.396-1.87 2.396-.903m-28.488.71c0 .322-.453.644-1.036.644-.518 0-.777-.322-.583-.644a1.23 1.23 0 0 1 1.036-.645c.324 0 .583.258.583.645m1.1 1.418c-.194.515-.388.322-.388-.387-.065-.71.13-1.096.324-.838.194.193.259.773.064 1.225m6.022-.13c0 .71-.26 1.29-.648 1.29a.647.647 0 0 0-.647.645c0 .58 2.72.45 4.726-.323 1.49-.644 1.425.452-.194 1.483-1.49.902-1.748 2.192-.324 1.676.518-.258.972-.064.972.387 0 .387.323.516.647.322.389-.193.647-.064.647.322 0 .452-.518.58-1.294.323-1.101-.323-1.23-.194-.907 1.418.26 1.29.065 2.127-.647 2.707-.583.516-1.036 1.16-1.036 1.547 0 .323.647.13 1.36-.58 1.035-.902 1.359-.967 1.1-.258-.13.516-1.165 1.419-2.201 1.934-1.036.516-2.008 1.032-2.202 1.16-.712.452 1.748 1.354 2.85 1.032.776-.258 1.035-.129.776.322-.712 1.096-2.59.838-4.079-.515-.971-.903-1.23-1.74-.971-3.352.324-2.063.388-2.128.971-.71.971 2.063 1.425 1.741 1.49-1.16.064-1.418-.13-2.578-.39-2.578-.84 0-2.46 2.256-2.783 3.867-.195.903-.195-1.289 0-4.834.194-3.546.453-6.64.647-6.962.583-.967 2.137-.387 2.137.838m1.748.13c-.194.515-.389.322-.389-.387-.064-.71.13-1.096.324-.838.194.193.26.773.065 1.225m6.863-.13c-.194.774 0 1.29.453 1.29.518 0 .648.58.389 1.676-.324 1.29-.195 1.74.712 1.934.647.193 1.489 1.031 1.877 1.87.648 1.418.583 1.61-1.035 2.191-1.554.516-2.008.387-3.238-1.031-1.165-1.29-1.23-1.74-.582-2.192.518-.258.97-1.225.97-1.998.13-1.676-.906-3.224-1.747-2.708-1.101.645-.583-.58.582-1.418 1.554-1.225 2.007-1.096 1.619.387m-12.69-.193a.78.78 0 0 1-.907 0c-.194-.258 0-.45.453-.45.454 0 .648.192.454.45m28.035 7.607c-.195.322-.453-.645-.648-2.256-.194-1.612-.194-3.223 0-3.546.195-.386.454.645.648 2.257.194 1.611.194 3.158 0 3.545m-29.395-3.094c-.712.709-1.1-.258-.583-1.483.454-1.16.518-1.16.713-.064.13.644.064 1.353-.13 1.547m-30.69-.323c-.453.452-.776.516-.776.13 0-.903.777-1.677 1.23-1.225.13.193-.065.709-.453 1.095m57.56 0c0 .452.13 1.483.323 2.192.13.967-.13 1.483-1.035 1.74-.713.194-1.295.13-1.295-.128s-.454-1.032-1.036-1.74c-.842-1.032-.972-1.032-.648-.13.194.645.065 1.16-.259 1.16-.712 0-.777-.386-.259-2.449.324-1.031.907-1.418 2.266-1.418 1.036 0 1.878.387 1.943.773m27.776 5.48c0 2.514-.26 3.416-.907 3.416-.518 0-1.165-.58-1.36-1.289-.194-.709-.647-1.29-.97-1.29-1.166 0-1.296-3.287-.195-5.156l1.1-1.87 1.166 1.354c.842.967 1.166 2.385 1.166 4.835m-34.316-4.32c0 .323-.13.645-.259.645-.194 0-.518-.322-.712-.644-.194-.387-.065-.645.26-.645.388 0 .711.258.711.645M17.14 72.635c0 .322-.324.644-.712.644-.324 0-.454-.322-.26-.644.195-.387.518-.645.713-.645.13 0 .259.258.259.645m5.827 4.706c0 .322-.26.386-.583.128-.388-.193-.841.065-1.165.516-.583 1.032-4.08 2.063-4.08 1.16 0-.322.454-.709.972-.967.518-.193.971-.966.971-1.676 0-.709.453-2.062 1.1-2.965l1.037-1.611.841 2.45c.518 1.353.907 2.707.907 2.965m43.51-2.515c-.26.452-.519.323-.648-.45-.13-.581-.518-1.097-.842-1.097s-.583-.322-.583-.773c0-.387.518-.194 1.295.451.713.645 1.036 1.483.777 1.87m13.272-1.74c-.259.193-.453 0-.453-.451 0-.452.194-.645.453-.452a.77.77 0 0 1 0 .903m-73.616.451c0 .13-.712.387-1.619.516-.906.193-1.618.064-1.618-.194 0-.322.712-.58 1.618-.58s1.619.13 1.619.258m104.888 1.16c0 .838-2.071.387-2.395-.58-.194-.45.194-.58 1.036-.386.777.193 1.359.644 1.359.966m-38.847 2.901c-.648 1.032-.712.967-.389-.45.195-.903.389-2.064.454-2.58.064-.515.259-.322.388.452.13.773-.065 1.934-.453 2.578m-54.387-1.353c0 .515-.259.902-.647.902-.324 0-.648-.58-.648-1.354 0-.709.324-1.096.648-.902.388.193.647.838.647 1.354m38.654-.58a.78.78 0 0 1-.907 0c-.194-.258 0-.452.453-.452.454 0 .648.194.454.451m9.906.902c0 .322-.454.58-1.036.58-.518 0-.777.258-.583.645.647 1.096 2.266.709 2.266-.516 0-.903.13-.967.648-.129.906 1.418-.454 2.643-2.526 2.127-2.266-.515-2.33-.644-1.36-2.385.778-1.482 2.59-1.676 2.59-.322m3.69-.258c-.259.193-.453 0-.453-.451s.194-.645.453-.451a.77.77 0 0 1 0 .902m-31.531 2.256c0 2.128-1.1 1.225-1.166-.902-.064-1.483.13-1.805.519-1.16.388.515.647 1.482.647 2.062m20.071-2.127c0 .322-.453.71-.971.967-.971.322-1.295-.322-.518-1.096.583-.645 1.49-.58 1.49.129m2.331.387c.907.838.907.967 0 .967-.583 0-1.036.322-1.036.709 0 .322-.259.451-.647.258-.324-.194-.648.064-.648.58 0 .58-.324 1.031-.712 1.031-.389 0-.583-.193-.453-.516 2.201-4.512 2.136-4.447 3.496-3.03m47.329-.516a.78.78 0 0 1-.906 0c-.194-.258 0-.451.453-.451s.648.193.453.451m-15.344.774c0 .322-.454.902-.972 1.353-1.036.903-1.165.645-.582-.902.388-1.096 1.554-1.418 1.554-.451m17.805.064c.194.322.064.645-.259.645-.389 0-.712-.323-.712-.645 0-.387.129-.645.259-.645.194 0 .517.258.712.645m-41.114 2.385c0 .71-3.367 7.285-3.95 7.671-.906.516-.712-.129.713-2.643.712-1.289 1.295-2.836 1.295-3.48s.194-1.354.453-1.548c.518-.58 1.489-.58 1.489 0m-24.603.774c0 .387-.26.838-.648 1.031-.324.194-.647-.064-.647-.58 0-.58.323-1.031.647-1.031.389 0 .648.258.648.58m1.489.709c-.194.709-.453 1.29-.583 1.29s-.259-.581-.259-1.29.259-1.29.583-1.29.453.58.259 1.29m14.373-.645c-.194.323-.647.645-1.036.645-.323 0-.582-.322-.582-.645 0-.386.453-.644 1.036-.644.518 0 .776.258.582.644m32.503.387c.841.258 1.36.645 1.165.903-.194.322-.065.709.26.966 1.23.71-.648 3.546-2.332 3.546-.841 0-1.424-.258-1.165-.58.194-.322-.26-1.032-1.036-1.547-.971-.71-1.23-1.354-.906-2.321.453-1.354 1.489-1.612 4.014-.967M57.41 84.817c-.583 2.385-.065 3.74.712 1.805.259-.516.389-.387.389.258.064 1.032-2.267 3.61-2.785 3.094-.13-.129 0-1.547.389-3.158.324-1.612.647-3.61.647-4.448 0-1.032.195-1.29.648-.838.518.515.518 1.482 0 3.287m3.884-2.385c-.453.451-.776.516-.776.129 0-.903.776-1.676 1.23-1.225.13.194-.065.71-.454 1.096m-20.848.194c.648.773.648 1.224.13 1.74-.583.58-.777.516-.777-.387 0-.58-.26-.902-.648-.709-.323.194-.647-.064-.647-.58 0-1.29.906-1.29 1.942-.064m6.475 1.289c-.906 1.096-1.942 1.289-1.942.322 0-.387.453-.645.97-.645.519 0 .972-.515 1.037-1.16 0-.709.13-.773.388-.258.194.451-.065 1.225-.453 1.74m7.77-1.999c0 .065-.324 1.096-.713 2.257-.971 2.772-1.877 2.578-.971-.258.389-1.225.906-2.257 1.165-2.257.324 0 .518.13.518.258M24.648 83.4c.971 1.29 1.166 2.772.389 2.772-.26 0-.842-.903-1.23-1.934-.842-2.192-.454-2.514.841-.838m40.402.967c0 .451-.26.451-.907-.064-.712-.58-.97-.58-1.165 0-.13.45-.648.58-1.1.322-.584-.387-.584-.71 0-1.418.776-.967 3.172-.13 3.172 1.16m-15.733-.322c-.26.193-.454 0-.454-.452 0-.45.195-.644.454-.45a.77.77 0 0 1 0 .902m-26.87 1.289c-.26 1.29-.453 1.483-.648.645-.129-.58-.647-1.096-1.165-1.096s-.777-.323-.583-.645c.195-.387.907-.645 1.554-.645.971 0 1.1.387.842 1.74m21.69-.645c-.26.194-.453 0-.453-.451s.194-.645.453-.451a.77.77 0 0 1 0 .902m6.928-.129c-.26.516-.713.967-1.166.967s-.453.194.13.516c.582.387.647.967.194 2.127s-.647 1.29-.971.58c-.389-1.03-.26-2.256.583-4.06.582-1.354 1.748-1.483 1.23-.13m10.942 3.16c-.26 1.417-.454 1.482-1.23.708-.518-.451-.907-1.483-.907-2.256 0-1.096.194-1.225 1.23-.71.842.452 1.101 1.161.907 2.257m-7.576 1.16c-.064 2.513.065 2.771 1.554 2.836.907 0 2.072-.516 2.59-1.16.907-1.096 1.036-1.032 1.684.386.712 1.483.582 1.547-2.267 1.934-3.625.451-7.963-.129-8.934-1.16-.26-.323.712-.387 2.266-.13 2.59.388 2.719.323 2.072-.837q-.681-1.257 0-2.901c.841-2.32 1.1-2.127 1.035 1.031m9.971-2.063a.647.647 0 0 1-.647.644c-.324 0-.648-.322-.648-.644 0-.387.324-.645.648-.645.388 0 .647.258.647.645m22.985 0c-.194.322-.842.644-1.36.644-1.36 0-.777 1.483.907 2.32 1.424.71 1.424.71.13 1.87-1.23 1.16-1.296 1.096-2.331-1.289-1.036-2.514-.777-3.223 1.36-3.739.712-.193 1.359-.322 1.488-.387.13 0 0 .194-.194.58m11.46-.065c-.518.258-.777.967-.647 1.483.388 1.74-4.273 7.155-7.964 9.411-2.914 1.74-3.173 1.74-3.173.13 0-1.483 4.274-6.254 4.986-5.609.194.258.842-.129 1.36-.903.582-.838 1.36-1.224 2.136-1.03.971.257 1.23 0 1.23-1.484 0-1.676.648-2.385 2.266-2.514.389 0 .26.194-.194.516m-46.94 1.483c-.195.516-.39.322-.39-.387-.064-.71.13-1.096.325-.838.194.193.259.773.064 1.225m12.884 2.192c-.26.773-.648.902-1.1.45-.325-.322-.454-1.095-.195-1.74.259-.773.647-.902 1.1-.451.324.322.454 1.096.195 1.74m-35.675.386c-.583 2.643-.518 2.579-1.878 2.063-.583-.258-.971-.838-.777-1.29.194-.45.065-1.03-.259-1.224-.259-.193-.647 0-.777.451-.194.451-.647.516-1.1.258-1.036-.644 1.489-2.192 3.69-2.256 1.36-.064 1.49.129 1.1 1.998m60.537.774c0 .193-.259.516-.647.709-.324.193-.648.064-.648-.258 0-.387.324-.709.648-.709.388 0 .647.129.647.258m12.626.387c.194.322.064.644-.259.644-.389 0-.712-.322-.712-.644 0-.387.129-.645.259-.645.194 0 .518.258.712.645m-86.371 1.031c.777.902.712 1.031-.324.838-.712-.129-1.36-.645-1.554-1.096-.324-1.096.842-.967 1.878.258m21.301-.064c0 .515.389.773.907.58 1.683-.645 1.942 4.512.258 6.639-.906 1.161-5.244-1.547-4.661-2.965.259-.58.453-1.611.518-2.32.064-.71.323-1.677.582-2.128.713-1.096 2.396-.967 2.396.194m38.718 1.482c.13.838-.194 1.612-.777 1.805-.647.258-1.036 1.225-1.036 2.643 0 1.87-.194 2.127-.841 1.547-.518-.386-1.101-.515-1.295-.258-.26.194-.454-.193-.454-.838 0-.709-.388-1.869-.906-2.514-.777-1.031-.647-1.353.777-2.578 2.136-1.87 4.273-1.74 4.532.193m4.986-1.225c-1.036.903-3.561 1.483-3.561.774 0-.322.776-.774 1.812-.903.972-.128 1.878-.322 2.072-.386.13 0 0 .193-.323.515m-52.315 1.805c-.26.194-.453 0-.453-.45 0-.452.194-.646.453-.452a.77.77 0 0 1 0 .902m-12.108.774c0 .322-.453.71-.97.967-.584.193-.972 0-.972-.58 0-.516.453-.967.971-.967s.971.258.971.58m14.05.516c-.259.193-.453 0-.453-.452 0-.45.194-.644.453-.45a.77.77 0 0 1 0 .902m46.812.193c0 .322-.324.645-.713.645-.323 0-.453-.323-.259-.645.195-.387.518-.645.713-.645.129 0 .259.258.259.645m4.532-.064c0 .386-.26.838-.648 1.031-.323.193-.647-.064-.647-.58 0-.58.324-1.032.647-1.032.389 0 .648.258.648.58m-37.423 1.16c1.813 1.611 1.424 2.643-1.101 2.643-1.23 0-2.266-.258-2.266-.58 0-.323.324-.58.647-.58.389 0 .648-.58.648-1.29 0-1.547.518-1.611 2.072-.193m24.797.258c.518 1.482.065 2.192-.906 1.547-.842-.516-.971-2.9-.13-2.9.324 0 .842.58 1.036 1.353m-17.74.58c.842 0 1.1.322.777 1.031-.194.581 0 1.29.518 1.612.777.451.777.58-.065.58-.518 0-1.36.58-1.813 1.289-.971 1.612-3.755 1.741-4.144.129-.194-.644-.064-1.869.26-2.707.517-1.483.647-1.483 1.23-.516.388.645 1.1 1.16 1.683 1.16.906 0 .842-.257-.324-1.289-1.683-1.547-1.813-2.256-.388-1.676.583.194 1.554.387 2.266.387m24.603 2.127c-.518.516-.712.451-.712-.258 0-1.289.842-2.191 1.166-1.224.194.45-.065 1.095-.454 1.482m8.87-.515c-.064.902-.388 1.611-.647 1.611s-.518.387-.518.903c0 .58-.583.902-1.295.838-1.554-.129-1.683-.774-.323-1.354.517-.194.97-.645.97-.967 0-.387-.388-.516-.906-.322-.518.193-1.1.064-1.36-.323-.194-.386.26-.967 1.101-1.289 2.46-1.031 3.108-.838 2.979.903m11.784-.967c0 .322-.13.644-.259.644-.194 0-.518-.322-.712-.644-.194-.387-.065-.645.26-.645.388 0 .711.258.711.645m-40.272 3.545c.065 1.676-.194 2.256-.906 2.256-.583 0-.907-.387-.712-.838.13-.387 0-1.418-.26-2.256-.453-1.16-.323-1.418.648-1.418.842 0 1.166.516 1.23 2.256m10.813-.967c.194.322.065.645-.26.645-.388 0-.711-.323-.711-.645 0-.387.13-.645.259-.645.194 0 .518.258.712.645m-8.547 1.934c-.453 1.805-.841 1.612-.841-.387 0-.902.259-1.482.582-1.289.324.193.454.967.26 1.676m30.107-.322c-.194.193-.582-.129-.777-.774-.388-.902-.323-.967.324-.387.453.452.648.967.453 1.161m-44.74.773c-.258.194-.452 0-.452-.451s.194-.645.453-.451a.77.77 0 0 1 0 .902m8.094.323c-.453.451-.777.515-.777.128 0-.902.777-1.676 1.23-1.224.13.193-.064.709-.453 1.096m20.266-.774c-1.749.774-2.266.774-2.266 0 0-.387.776-.645 1.812-.58 1.554 0 1.619.064.454.58m7.445 1.612c-.453.515-1.1.967-1.424.967s-1.1.451-1.619 1.031c-.647.645-1.748.902-2.978.709-1.554-.193-2.396.193-4.079 1.869-1.878 1.999-3.367 2.515-6.086 2.257-.842-.129-.842-.065 0 .515 1.165.774.777 1.225-1.878 1.999-2.136.58-3.367-.194-2.072-1.483.907-.902.972-2.578.065-2.063-.324.194-.647.065-.647-.387 0-.515-.454-.451-1.425.258-.841.516-1.489 1.612-1.489 2.385 0 .838-.324 1.612-.777 1.741-1.23.451-1.619-2.514-.647-4.899.906-2.192.97-2.192 5.697-2.45 6.41-.322 6.41-.322 6.41-1.096 0-.515.13-.515.518 0 .907 1.354 2.396 1.354 4.532.129 1.101-.709 2.072-1.096 2.072-.902 0 .193.971-.065 2.137-.58 1.1-.516 2.59-.903 3.302-.967.971 0 1.036.193.388.967m11.46 2.707a.78.78 0 0 1-.906 0c-.194-.258 0-.451.453-.451s.648.193.453.451M54.173 109.7c-.194 1.354-.453 1.483-1.489.902-1.748-.902-1.554-2.514.324-2.514 1.23 0 1.424.258 1.165 1.612m27.518-1.16a.78.78 0 0 1-.907 0c-.194-.258 0-.452.453-.452.454 0 .648.194.454.452m-20.072 9.025c-.259.193-.453 0-.453-.452 0-.451.194-.644.453-.451a.77.77 0 0 1 0 .903"/></g><defs><filter id="a" width="119.7" height="124.7" x="0" y="0" color-interpolation-filters="sRGB" filterUnits="userSpaceOnUse"><feFlood flood-opacity="0" result="BackgroundImageFix"/><feColorMatrix in="SourceAlpha" result="hardAlpha" values="0 0 0 0 0 0 0 0 0 0 0 0 0 0 0 0 0 0 127 0"/><feOffset dx="2" dy="5"/><feGaussianBlur stdDeviation=".35"/><feComposite in2="hardAlpha" operator="out"/><feColorMatrix values="0 0 0 0 0 0 0 0 0 0 0 0 0 0 0 0 0 0 0.25 0"/><feBlend in2="BackgroundImageFix" result="effect1_dropShadow_225_6"/><feBlend in="SourceGraphic" in2="effect1_dropShadow_225_6" result="shape"/></filter></defs></svg>