<svg width="113" height="51" viewBox="0 0 113 51" fill="none" xmlns="http://www.w3.org/2000/svg">
<path fill-rule="evenodd" clip-rule="evenodd" d="M26.9843 42.7154C26.8166 43.4539 27.478 44.0929 28.1997 43.8897L46.6766 38.6882C47.0361 38.587 47.3143 38.2925 47.3978 37.9246L52.0883 17.2614C52.2559 16.5229 51.5945 15.8839 50.8728 16.087L32.396 21.2886C32.0364 21.3898 31.7583 21.6843 31.6748 22.0522L26.9843 42.7154ZM14.6684 27.7957C14.836 27.0572 14.1747 26.4182 13.453 26.6213L0.962584 30.1376C0.430964 30.2872 0.110642 30.8424 0.247126 31.3776L4.84977 49.4246C4.98625 49.9597 5.52786 50.2722 6.05948 50.1226L9.25672 49.2225C9.61626 49.1213 9.8944 48.8268 9.97791 48.4589L14.6684 27.7957ZM112.867 19.016C113.003 19.5512 112.683 20.1063 112.151 20.256L101.113 23.3634C100.391 23.5666 99.7301 22.9276 99.8977 22.1891L104.588 1.52589C104.672 1.15797 104.95 0.863475 105.309 0.762256L107.054 0.271002C107.586 0.121342 108.128 0.433849 108.264 0.969003L112.867 19.016ZM69.0946 11.5179C69.1782 11.15 69.4563 10.8555 69.8158 10.7543L86.3664 6.09502C87.0881 5.89185 87.7495 6.53085 87.5819 7.26936L82.8914 27.9326C82.8079 28.3005 82.5297 28.595 82.1702 28.6962L65.6196 33.3554C64.8979 33.5586 64.2365 32.9196 64.4042 32.1811L69.0946 11.5179Z" fill="#FFF6E4"/>
</svg>
