<svg width="117" height="101" viewBox="0 0 117 101" fill="none" xmlns="http://www.w3.org/2000/svg">
<path d="M1.45312 97.697V78.197L7.6875 30.4783H21.8906L28.0312 78.197V97.697H20.3438L19.125 85.6033H10.4531L9.23438 97.697H1.45312ZM11.3438 76.4626H18.2344L14.7656 42.6658L11.3438 76.4626ZM30.8906 97.697V78.197L37.125 30.4783H51.3281L57.4688 78.197V97.697H49.7812L48.5625 85.6033H39.8906L38.6719 97.697H30.8906ZM40.7812 76.4626H47.6719L44.2031 42.6658L40.7812 76.4626ZM64.2656 70.4158L56.4844 40.9783V30.4783H64.4531L69.3281 55.1814L74.25 30.4783H82.125V40.9783L74.3438 70.4158V97.697H64.2656V70.4158ZM96.2812 89.0251C96.8125 89.3689 97.4219 89.5408 98.1094 89.5408C98.7969 89.5408 99.4062 89.3689 99.9375 89.0251C100.469 88.6501 100.734 88.1501 100.734 87.5251V30.4783H110.812V88.1814C110.812 91.1814 109.562 93.6814 107.062 95.6814C104.562 97.6501 101.578 98.6345 98.1094 98.6345C94.6406 98.6345 91.6562 97.6501 89.1562 95.6814C86.6875 93.6814 85.4531 91.1814 85.4531 88.1814V30.4783H95.5312V87.5251C95.5312 88.1501 95.7812 88.6501 96.2812 89.0251Z" fill="#FFF6E4"/>
<path fill-rule="evenodd" clip-rule="evenodd" d="M23.2019 19.4349C22.8592 20.1005 23.3424 20.8928 24.091 20.8928H43.2153C43.5898 20.8928 43.9329 20.6835 44.1043 20.3506L53.7286 1.66057C54.0713 0.995039 53.5881 0.202759 52.8395 0.202759H33.7152C33.3407 0.202759 32.9976 0.412005 32.8261 0.744951L23.2019 19.4349ZM14.9883 1.66057C15.331 0.99504 14.8479 0.202759 14.0993 0.202759H1.17261C0.620323 0.202759 0.172607 0.650473 0.172607 1.20276V19.8928C0.172607 20.445 0.620322 20.8928 1.17261 20.8928H4.47505C4.84955 20.8928 5.19266 20.6835 5.3641 20.3506L14.9883 1.66057ZM112 19.8928C112 20.445 111.552 20.8928 111 20.8928H99.5767C98.8281 20.8928 98.3449 20.1005 98.6876 19.4349L108.312 0.744951C108.483 0.412005 108.826 0.202759 109.201 0.202759H111C111.552 0.202759 112 0.650473 112 1.20276V19.8928ZM71.5664 0.744951C71.7378 0.412005 72.0809 0.202759 72.4554 0.202759H89.585C90.3336 0.202759 90.8167 0.99504 90.474 1.66057L80.8498 20.3506C80.6784 20.6835 80.3353 20.8928 79.9608 20.8928H62.8312C62.0826 20.8928 61.5994 20.1005 61.9421 19.4349L71.5664 0.744951Z" fill="#FFF6E4"/>
</svg>
